<svg width="385" height="311" viewBox="0 0 385 311" fill="none" xmlns="http://www.w3.org/2000/svg">
<g clip-path="url(#clip0_147_6866)">
<path d="M299.212 8.02686C299.613 8.95744 295.607 14.7746 295.607 14.7746C294.399 22.4912 290.257 25.5761 290.257 25.5761V27.8494C289.992 35.8379 286.101 43.2868 286.101 43.2868L286.007 49.5246L285.965 52.0699C285.5 52.6648 284.924 53.1152 284.228 53.4211C281.694 63.8019 275.811 69.7891 275.811 69.7891C272.615 74.5142 264.893 81.4659 258.672 86.6627C256.761 88.2689 254.982 89.7178 253.531 90.8864C251.202 92.7645 249.675 93.933 249.675 93.933C250.135 95.3948 251.974 96.1299 251.974 96.1299V96.1639C252.273 96.916 257.077 108.95 257.67 112.736C257.751 114.325 257.751 115.918 257.67 117.508C257.499 118.332 253.702 119.811 253.702 119.811C247.601 128.369 245.438 119.649 245.438 119.649C241.47 121.455 237.507 104.841 236.184 105.334C234.862 105.827 232.05 109.774 232.05 109.774C231.884 114.716 223.952 130.179 223.952 130.179C224.78 132.979 223.458 132.979 223.458 132.979C224.277 136.429 222.958 135.936 222.958 135.936C225.412 141.677 227.506 147.55 229.243 153.545C231.06 155.024 229.243 156.18 229.243 156.18C232.05 158.478 229.921 159.141 229.921 159.141L232.562 165.553C240.493 177.702 247.277 194.185 247.277 194.185C247.772 195.17 246.287 199.288 246.287 199.288C250.251 200.274 244.47 201.922 244.47 201.922C250.413 207.51 258.344 229.725 258.344 229.725C261.987 230.876 269.415 236.804 269.415 236.804C291.571 282.56 286.779 309.869 286.779 309.869C288.273 313.328 284.962 314.811 284.962 314.811C285.64 324.023 283.648 326.777 283.648 326.777L160.003 328.727L161.16 275.642C159.867 272.693 156.164 270.305 156.164 270.305C156.164 270.305 155.426 242.481 155.801 239.715C156.172 236.944 157.085 237.297 157.085 237.297L156.667 209.669C156.667 207.761 155.434 207.213 155.434 207.213C152.008 209.392 146.62 204.285 146.62 204.285C151.014 196.279 149.627 192.901 149.627 192.901C148.753 194.779 136.457 207.017 136.457 207.017C136.743 208.585 133.496 210.79 133.496 210.79L125.428 215.023L120.953 217.364L120.578 217.559C120.578 217.559 117.147 217.984 116.648 217.062C116.145 216.136 117.075 213.145 117.075 213.145C116.409 213.17 115.885 212.907 115.501 212.363C114.933 211.504 115.142 207.272 115.142 207.272C115.142 207.272 113.785 207.578 113.649 207.077C113.555 206.516 113.525 205.951 113.568 205.385L123.005 200.286L128.816 197.176L130.625 196.203L132.946 194.949C134.584 193.598 140.655 177.783 140.655 177.783C140.788 167.81 149.841 157.535 149.841 157.535C150.98 156.86 155.502 149.623 155.502 149.623L150.11 145.195C144.418 146.317 144.653 141.065 144.653 141.065L138.552 134.7C138.164 125.101 148.13 123.503 148.13 123.503C149.29 116.908 154.231 122.539 154.231 122.539L158.16 122.407C157.576 119.849 162.977 122.347 162.977 122.347C163.041 121.706 163.941 118.124 163.941 118.124C163.109 117.996 162.512 116.335 162.512 116.335C163.297 114.682 166.795 104.76 166.795 104.76C167.222 103.77 167.79 102.869 168.498 102.058C169.206 101.246 170.025 100.566 170.951 100.009C171.877 99.457 172.867 99.0576 173.92 98.8111C174.974 98.5689 176.037 98.4924 177.112 98.5817C179.996 95.3565 187.603 92.6625 187.603 92.6625C187.603 92.2461 187.543 91.8382 187.424 91.4388C184.544 90.3127 188.563 86.1358 188.563 86.1358C189.087 79.7789 187.513 79.2563 187.513 79.2563C185.478 79.0821 184.8 75.5127 184.8 75.5127C184.621 73.9533 184.036 72.5595 183.05 71.3315C177.543 72.4661 178.072 67.2438 178.072 67.2438C176.497 67.418 176.668 63.5045 176.668 63.5045C172.64 62.3912 176.173 56.2723 176.314 56.0259L170.721 60.8912C168.813 63.9549 168.383 58.5627 168.383 58.5627C169.343 56.7313 174.07 53.5996 174.07 53.5996C174.262 52.9282 174.309 52.2398 174.219 51.5472C174.125 50.8504 173.899 50.2002 173.541 49.5968C165.149 47.6804 169.432 43.3293 169.432 43.3293C175.644 46.8094 178.003 46.5459 178.003 46.5459C180.627 45.8745 180.712 38.3662 180.712 38.3662C179.663 28.0109 191.289 29.753 191.289 29.753C202.04 21.2206 203.491 30.0972 203.491 30.0972C215.206 29.1412 214.157 38.6296 214.157 38.6296C221.329 37.5843 220.369 43.5927 220.369 43.5927C221.939 43.9411 222.549 47.8589 222.549 47.8589C222.835 50.2427 222.779 52.6223 222.374 54.9933C222.374 55.8644 220.8 56.557 220.8 56.557C221.589 57.6023 221.064 59.7779 221.064 59.7779C224.456 62.4762 221.064 65.0002 221.064 65.0002C222.293 69.003 215.56 71.442 215.56 71.442C217.045 81.1939 210.048 80.8455 210.048 80.8455C212.497 82.6727 213.986 85.7151 214.421 85.8043C214.856 85.8935 215.65 85.9785 215.65 85.9785C216.516 83.718 217.045 85.6301 217.045 85.6301C218.009 85.3709 218.355 86.6754 218.355 86.6754L219.759 85.3709C221.649 83.7435 223.773 82.5239 226.137 81.7123C225.872 79.9744 227.976 80.582 227.976 80.582C227.186 79.0141 229.46 79.1883 229.46 79.1883C228.782 77.888 231.555 78.0538 231.555 78.0538L232.08 77.2719C229.546 70.5709 239.085 75.0878 239.085 75.0878C239.695 74.0383 244.034 71.1828 247.785 68.85C249.504 67.7707 251.104 66.8231 252.158 66.1475L253.429 65.3911C253.681 65.2552 253.924 65.1022 254.154 64.9322C257.41 62.5909 260.021 57.0159 260.021 57.0159C261.458 55.3885 263.737 49.8688 263.737 49.8688C264.027 49.3759 264.368 48.8745 264.692 48.3858L265.465 47.2768L265.81 46.7839L265.878 46.6904L265.917 46.6309L265.972 46.5629L266.062 46.4397C266.339 46.0487 266.514 45.8108 266.514 45.8108C267.137 45.1267 267.675 44.3788 268.135 43.58C271.689 37.5843 278.17 23.1753 278.17 23.1753C278.609 22.3892 278.277 19.8312 278.277 19.8312C277.005 18.9218 276.105 17.732 275.567 16.2703C275.256 12.2123 275.328 8.16284 275.789 4.11759C276.8 2.55813 278.968 3.27625 278.968 3.27625C279.049 3.15302 279.13 3.04679 279.215 2.93631C281.246 0.374043 283.52 3.09353 283.52 3.09353C283.947 2.78334 285.363 2.97031 285.363 2.97031C285.406 2.34143 285.525 1.72954 285.73 1.13465C286.208 0.306056 287.62 -0.552283 289.493 0.114842C291.362 0.786216 289.958 3.38248 289.856 3.58644C291.387 1.4236 293.132 1.37686 293.132 1.37686C298.265 4.92919 293.132 9.21664 293.132 9.21664C294.63 9.28888 296.127 7.04954 296.127 7.04954C296.503 6.45466 296.806 3.32299 296.806 3.32299C297.706 -0.182603 299.655 2.12897 299.655 2.12897C299.758 4.11334 299.613 6.08073 299.212 8.02686Z" fill="#B8A25D"/>
<path d="M116.158 192.404C116.158 192.404 106.281 196.513 109.46 202.084C109.929 202.666 110.471 203.172 111.081 203.601C110.757 203.665 110.432 203.66 110.108 203.592C109.784 203.524 109.485 203.393 109.217 203.201C108.948 203.01 108.726 202.772 108.555 202.492C108.38 202.207 108.274 201.905 108.227 201.578C108.227 201.578 109.46 194.282 108.858 193.738C108.696 193.292 108.427 192.923 108.043 192.634C107.531 195.651 107.224 198.693 107.122 201.752C107.122 201.752 107.42 204.859 111.192 205.067C111.192 205.067 115.215 206.418 118.308 203.597C118.308 203.597 123.249 198.973 128.693 198.417C128.693 198.417 130.864 198.115 128.449 197.006C129.17 196.568 129.951 196.284 130.787 196.156C131.624 196.024 132.451 196.063 133.27 196.267C133.27 196.267 134.239 195.034 132.289 194.771C132.289 194.771 128.147 194.469 127.344 194.711C127.344 194.711 124.123 196.063 122.954 197.359L108.261 106.349C107.463 105.019 106.422 103.914 105.138 103.043C104.57 103.893 104.216 104.824 104.071 105.831C103.862 107.118 117.387 200.928 117.387 200.928C117.387 200.928 111.896 202.645 110.334 201.455C108.777 200.269 116.687 196.122 116.687 196.122" fill="#B8A25D"/>
<path d="M121.943 191.133C124.119 191.682 125.958 193.772 125.958 193.772C125.958 193.772 123.197 193.64 122.357 193.679" fill="#B8A25D"/>
<path d="M125.428 215.022L125.535 217.045C125.923 218.039 126.585 218.787 127.523 219.301C130.173 220.818 126.103 223.606 126.103 223.606C126.103 223.606 127.276 226.398 125.834 226.848C124.387 227.298 124.14 224.405 124.14 224.405C123.227 224.749 122.284 224.902 121.311 224.872C121.311 224.872 119.238 224.532 120.863 220.967C120.863 220.967 121.38 218.328 120.987 217.372" fill="#B8A25D"/>
<path d="M285.986 51.989C286.379 52.4989 286.844 52.9323 287.377 53.2935C287.915 53.6504 288.491 53.9181 289.109 54.0923C289.732 54.2708 290.364 54.343 291.008 54.3133C291.652 54.2878 292.279 54.1603 292.881 53.9309L302.493 62.2933C302.493 62.2933 309.132 63.2069 308.948 59.3868C308.419 59.2679 307.903 59.3146 307.404 59.5271C306.904 59.7438 306.516 60.0837 306.235 60.5469C306.235 60.5469 304.161 60.6403 301.431 58.299L294.238 52.5754C294.238 52.5754 289.715 52.7793 289.344 52.0697C289.344 52.0697 287.885 49.3672 285.999 49.5244" fill="#B8A25D"/>
<path d="M263.263 100.889C262.751 95.1057 251.206 63.1517 251.206 63.1517C251.206 63.1517 253.958 95.2927 253.621 98.9937M251.641 46.6436C251.641 46.6436 253.152 50.3956 251.057 49.9494C248.962 49.5033 251.287 46.6818 251.287 46.6818L251.641 46.6436ZM306.976 61.8005C306.976 61.8005 306.298 64.3797 307.045 64.6857C307.787 64.9874 309.698 63.8358 308.163 60.9804L306.976 61.8005ZM297.578 114.975C298.256 109.366 308.222 75.7591 308.222 75.7591L307.919 64.537L297.578 114.975ZM320.053 113.777C318.312 105.716 308.623 76.8469 308.623 76.8469C308.623 76.8469 309.767 106.047 309.566 111.516L320.053 113.777ZM243.125 101.39C243.471 91.4004 250.848 62.2594 250.848 62.2594L251.057 49.9494L243.125 101.39Z" stroke="#252013" stroke-width="0.827481" stroke-miterlimit="10"/>
<path d="M295.76 115.651C295.76 115.651 299.429 128.424 308.943 128.309C318.453 128.194 321.538 120.554 321.768 114.618C320.77 114.07 319.737 113.59 318.671 113.182C317.604 112.774 316.516 112.438 315.407 112.175C314.298 111.916 313.171 111.729 312.037 111.618C310.902 111.512 309.763 111.478 308.619 111.525C307.48 111.567 306.345 111.69 305.223 111.89C304.101 112.09 302.996 112.362 301.908 112.71C300.82 113.059 299.762 113.479 298.734 113.972C297.706 114.465 296.716 115.026 295.76 115.651Z" fill="#B8A25D"/>
<path d="M268.156 43.5247C268.156 43.5247 257.025 45.6365 255.127 45.8235C254.052 45.951 252.998 45.8532 251.965 45.5345C251.965 45.5345 251.193 43.7414 249.546 43.8221C249.546 43.8221 247.887 45.8872 253.612 48.0713L266.108 46.4311L265.511 47.2895C265.268 47.6294 265.008 48.0076 264.739 48.3985" fill="#B8A25D"/>
<path d="M257.695 112.748L252 96.1808C252.298 96.9032 257.106 108.962 257.695 112.748Z" fill="#B8A25D"/>
<path d="M239.866 103.171C239.866 103.171 243.531 115.944 253.036 115.829C262.542 115.714 265.639 108.07 265.869 102.138C264.871 101.59 263.839 101.11 262.772 100.702C261.71 100.294 260.622 99.9584 259.508 99.6949C258.399 99.4357 257.277 99.2488 256.138 99.1383C255.003 99.0321 253.864 98.9981 252.725 99.0448C251.581 99.0873 250.451 99.2105 249.324 99.4102C248.202 99.6099 247.097 99.8819 246.009 100.23C244.921 100.579 243.868 100.999 242.835 101.492C241.807 101.985 240.817 102.546 239.866 103.171Z" fill="#B8A25D"/>
<path d="M253.919 119.305C241.039 103.409 233.471 78.7123 233.471 78.7123C236.798 84.5167 253.919 119.305 253.919 119.305ZM213.717 45.3475C195.751 38.74 180.495 50.0174 180.495 50.0174C192.624 44.5784 213.717 45.3475 213.717 45.3475ZM168.903 109.328C169.696 108.652 180.755 109.812 192.138 106.358C203.512 103.447 215.189 95.9301 217.22 90.6228C217.22 90.4741 209.873 96.7927 200.47 101.195C191.092 105.852 179.688 108.584 172.252 106.965L168.903 109.328ZM159.683 183.85L174.023 187.394C184.189 181.998 211.127 168.184 213.901 163.888C216.674 159.587 214.413 137.844 214.413 137.844C214.413 137.844 212.279 143.921 209.199 155.245C206.123 166.573 176.766 181.322 176.766 181.322L166.339 181.879L157.529 178.042L159.683 183.85ZM145.323 133.701C145.869 131.806 148.258 131.492 148.714 130.689C149.167 129.885 160.451 128.887 160.451 128.887C160.451 128.887 153.454 128.492 148.714 128.691C143.974 128.895 142.844 134.092 142.844 134.092L154.576 143.118L145.323 133.701ZM193.9 189.294C193.9 189.294 197.676 193.058 204.698 192.459C211.725 191.856 220.898 179.635 221.973 174.91C223.052 170.185 221.973 158.657 221.973 158.657L220.339 169.938C215.479 180.154 199.284 188.758 199.284 188.758L193.9 189.294ZM166.637 236.46C166.637 236.46 178.43 238.716 181.045 236.872C183.665 235.028 198.341 225.888 198.341 225.888C198.341 225.888 177.641 232.64 177.013 232.287C176.382 231.939 162.431 205.075 162.431 205.075L166.637 236.46ZM104.945 106.859C104.945 106.859 117.331 195.226 118.436 197.21C118.436 197.21 106.605 110.118 104.945 106.859ZM122.037 218.541C122.037 218.541 121.507 222.641 120.744 222.854L122.258 224.15L121.584 222.637L122.037 218.541ZM316.427 124.638C316.427 124.638 321.41 118.978 320.821 116.534L316.427 124.638ZM260.481 112.731C260.481 112.731 265.464 107.067 264.88 104.628Z" fill="#EBD799"/>
</g>
<path d="M7.03103 247.016V264.302H17.6117C19.1135 264.302 20.1203 264.081 20.6323 263.639C21.1443 263.197 21.4003 262.831 21.4003 262.534V268.517C21.4003 268.394 21.3064 268.202 21.1272 267.939C20.9438 267.667 20.5726 267.404 20.018 267.14C19.4719 266.881 18.6698 266.749 17.6117 266.749H7.03103V280.823C7.03103 282.399 7.22728 283.606 7.62832 284.443C8.0379 285.271 8.48587 285.837 8.97651 286.143C9.46288 286.448 9.71033 286.559 9.71033 286.482H0C0 286.559 0.243185 286.461 0.733821 286.177C1.22019 285.896 1.65963 285.339 2.04787 284.511C2.43185 283.674 2.6281 282.446 2.6281 280.823V250.534C2.6281 248.869 2.43185 247.602 2.04787 246.727C1.65963 245.856 1.22019 245.248 0.733821 244.908C0.243185 244.56 0 244.445 0 244.568H22.1341V250.789C21.9293 249.816 21.3533 248.945 20.4105 248.172C19.4761 247.403 18.1578 247.016 16.4512 247.016H7.03103Z" fill="#B8A25D"/>
<path d="M26.9688 286.483C26.9688 286.606 27.2119 286.517 27.7026 286.211C28.1889 285.905 28.6284 285.301 29.0166 284.392C29.4006 283.474 29.5969 282.144 29.5969 280.398V250.483C29.5969 248.818 29.4006 247.551 29.0166 246.676C28.6284 245.805 28.1889 245.206 27.7026 244.874C27.2119 244.547 26.9688 244.445 26.9688 244.569H49.1028V250.67C48.3733 248.236 46.1718 247.016 42.4984 247.016H33.9998V264.302H44.5122C45.3313 264.302 46.0225 264.174 46.5942 263.911C47.1616 263.652 47.5883 263.38 47.8741 263.095C48.1557 262.815 48.3221 262.628 48.369 262.534V268.449C48.3221 268.373 48.1557 268.19 47.8741 267.905C47.5883 267.625 47.1744 267.361 46.6283 267.123C46.0822 266.877 45.3996 266.749 44.5805 266.749H33.9998V284.052H43.5395C45.3697 284.052 46.944 283.678 48.2666 282.93C49.5977 282.174 50.5449 281.205 51.1166 280.024L50.0244 286.483H26.9688Z" fill="#B8A25D"/>
<path d="M58.5221 250.245C58.5221 248.614 58.3259 247.386 57.9419 246.557C57.5537 245.72 57.1142 245.159 56.6279 244.874C56.1372 244.594 55.894 244.492 55.894 244.568H65.6044C65.6044 244.492 65.3569 244.594 64.8706 244.874C64.3799 245.159 63.9319 245.72 63.5224 246.557C63.1213 247.386 62.9251 248.614 62.9251 250.245V284.052H72.9596C74.7899 284.052 76.3642 283.678 77.6868 282.93C79.0179 282.174 79.9651 281.205 80.5368 280.024L79.4275 286.483H55.894C55.894 286.606 56.1372 286.517 56.6279 286.211C57.1142 285.905 57.5537 285.301 57.9419 284.392C58.3259 283.474 58.5221 282.144 58.5221 280.398V250.245Z" fill="#B8A25D"/>
<path d="M83.4058 286.483C83.4058 286.606 83.6489 286.517 84.1396 286.211C84.626 285.905 85.0782 285.34 85.4878 284.511C85.8973 283.674 86.1021 282.446 86.1021 280.823V250.245C86.1021 248.614 85.9059 247.386 85.5219 246.557C85.1337 245.72 84.6942 245.159 84.2078 244.874C83.7172 244.594 83.474 244.492 83.474 244.568H93.1844C93.1844 244.492 92.9369 244.594 92.4505 244.874C91.9599 245.159 91.5119 245.72 91.1023 246.557C90.7013 247.386 90.5051 248.614 90.5051 250.245V280.823C90.5051 282.446 90.7013 283.674 91.1023 284.511C91.5119 285.34 91.9599 285.896 92.4505 286.177C92.9369 286.461 93.1844 286.559 93.1844 286.483H83.4058Z" fill="#B8A25D"/>
<path d="M125.54 255.905C125.54 258.264 124.977 260.367 123.85 262.211C122.732 264.06 121.137 265.509 119.055 266.562C116.981 267.616 114.537 268.143 111.717 268.143C110.01 268.143 108.175 267.965 106.221 267.599V280.874C106.221 282.463 106.418 283.674 106.819 284.511C107.228 285.34 107.676 285.896 108.167 286.177C108.653 286.461 108.901 286.559 108.901 286.483H99.1904C99.1904 286.559 99.4336 286.461 99.9243 286.177C100.411 285.896 100.85 285.352 101.238 284.545C101.622 283.729 101.819 282.505 101.819 280.874V250.364C101.819 248.733 101.622 247.492 101.238 246.642C100.85 245.792 100.411 245.214 99.9243 244.908C99.4336 244.602 99.1904 244.492 99.1904 244.568H111.17C113.252 244.568 114.963 244.704 116.307 244.976C117.647 245.24 118.833 245.631 119.857 246.149C121.687 247.092 123.091 248.444 124.072 250.211C125.049 251.979 125.54 253.878 125.54 255.905ZM120.83 256.687C120.83 253.81 119.929 251.482 118.133 249.701C116.346 247.913 113.961 247.016 110.983 247.016H106.221V265.22C107.971 265.551 109.805 265.712 111.717 265.712C114.571 265.712 116.802 264.892 118.406 263.248C120.019 261.608 120.83 259.419 120.83 256.687Z" fill="#B8A25D"/>
<path d="M129.339 286.483C129.339 286.606 129.583 286.517 130.073 286.211C130.56 285.905 130.999 285.301 131.387 284.392C131.771 283.474 131.967 282.144 131.967 280.398V250.483C131.967 248.818 131.771 247.551 131.387 246.676C130.999 245.805 130.56 245.206 130.073 244.874C129.583 244.547 129.339 244.445 129.339 244.569H151.473V250.67C150.744 248.236 148.542 247.016 144.869 247.016H136.37V264.302H146.883C147.702 264.302 148.393 264.174 148.965 263.911C149.532 263.652 149.959 263.38 150.245 263.095C150.526 262.815 150.693 262.628 150.74 262.534V268.449C150.693 268.373 150.526 268.19 150.245 267.905C149.959 267.625 149.545 267.361 148.999 267.123C148.453 266.877 147.77 266.749 146.951 266.749H136.37V284.052H145.91C147.74 284.052 149.315 283.678 150.637 282.93C151.968 282.174 152.915 281.205 153.487 280.024L152.395 286.483H129.339Z" fill="#B8A25D"/>
<path d="M181.684 287.213C179.567 287.213 177.524 286.916 175.557 286.33C173.599 285.743 171.845 284.919 170.301 283.865V276.488C171.359 279.208 172.98 281.273 175.164 282.675C177.349 284.082 179.623 284.783 181.991 284.783C184.354 284.783 186.33 284.001 187.912 282.437C189.504 280.874 190.302 278.932 190.302 276.607C190.302 275.069 189.982 273.752 189.346 272.664C188.719 271.568 187.712 270.54 186.325 269.588C184.935 268.627 182.981 267.557 180.455 266.375C176.905 264.756 174.32 263.061 172.707 261.293C171.103 259.526 170.301 257.384 170.301 254.868C170.301 252.718 170.817 250.798 171.854 249.107C172.899 247.42 174.311 246.124 176.086 245.214C177.861 244.296 179.806 243.838 181.922 243.838C183.766 243.838 185.562 244.092 187.315 244.602C189.064 245.112 190.694 245.835 192.196 246.761V253.339C191.215 251.108 189.739 249.374 187.759 248.138C185.788 246.905 183.787 246.285 181.752 246.285C179.418 246.285 177.537 247.041 176.103 248.546C174.678 250.041 173.97 251.826 173.97 253.9C173.97 255.395 174.397 256.683 175.25 257.758C176.112 258.837 177.165 259.742 178.407 260.477C179.644 261.204 181.393 262.092 183.646 263.146C185.92 264.246 187.793 265.266 189.261 266.205C190.728 267.136 191.948 268.355 192.93 269.86C193.907 271.355 194.397 273.183 194.397 275.333C194.397 277.772 193.817 279.884 192.657 281.672C191.496 283.466 189.948 284.834 188.015 285.786C186.078 286.738 183.97 287.213 181.684 287.213Z" fill="#B8A25D"/>
<path d="M207.179 270.217L203.271 279.905C202.656 281.413 202.349 282.654 202.349 283.627C202.349 284.966 202.963 285.918 204.192 286.483H195.438C195.847 286.483 196.436 286.083 197.212 285.276C197.985 284.46 198.885 282.854 199.909 280.449L215.865 242.631L231.702 280.636C232.598 282.824 233.464 284.324 234.296 285.14C235.136 285.956 235.802 286.406 236.293 286.483H226.139C227.162 285.998 227.674 285.242 227.674 284.222C227.674 283.372 227.35 282.157 226.702 280.568L222.418 270.217H207.179ZM221.428 267.718L214.773 251.452L208.22 267.718H221.428Z" fill="#B8A25D"/>
<path d="M277.58 244.568C277.009 244.696 276.446 245.155 275.891 245.945C275.345 246.74 275.072 248.129 275.072 250.109V288.182L243.756 251.826V280.993C243.756 282.943 244.102 284.316 244.797 285.106C245.489 285.901 246.163 286.359 246.811 286.483H238.193C238.76 286.359 239.341 285.901 239.934 285.106C240.522 284.316 240.821 282.926 240.821 280.942V250.483C240.821 249.102 240.348 247.845 239.405 246.71C238.47 245.567 237.288 244.853 235.855 244.568H243.449L272.136 277.899V250.109C272.136 246.982 271.07 245.138 268.945 244.568H277.58Z" fill="#B8A25D"/>
<path d="M287.592 247.016C285.804 247.016 284.32 247.364 283.138 248.053C281.952 248.733 281.094 249.608 280.561 250.67L281.414 244.568H310.409L311.262 250.67C310.737 249.608 309.884 248.733 308.702 248.053C307.516 247.364 306.027 247.016 304.231 247.016H298.122V280.823C298.122 282.446 298.326 283.687 298.736 284.545C299.145 285.395 299.593 285.964 300.084 286.245C300.57 286.525 300.818 286.606 300.818 286.483H291.091C291.091 286.606 291.334 286.525 291.824 286.245C292.311 285.964 292.75 285.408 293.138 284.579C293.522 283.742 293.719 282.488 293.719 280.823V247.016H287.592Z" fill="#B8A25D"/>
<path d="M312.849 266.018C312.849 261.714 313.774 257.877 315.63 254.512C317.495 251.138 320.106 248.512 323.463 246.642C326.83 244.772 330.716 243.838 335.119 243.838C338.793 243.838 342.227 244.645 345.427 246.251C348.622 247.849 351.187 250.258 353.123 253.475C355.069 256.683 356.042 260.537 356.042 265.033C356.042 269.341 355.112 273.183 353.26 276.556C351.404 279.922 348.793 282.539 345.427 284.409C342.056 286.279 338.174 287.213 333.771 287.213C330.106 287.213 326.672 286.415 323.463 284.817C320.264 283.211 317.695 280.801 315.75 277.593C313.813 274.389 312.849 270.531 312.849 266.018ZM351.144 265.95C351.144 262.258 350.376 258.922 348.84 255.939C347.313 252.948 345.214 250.615 342.543 248.937C339.881 247.25 336.877 246.404 333.532 246.404C330.469 246.404 327.747 247.177 325.358 248.716C322.977 250.258 321.113 252.438 319.76 255.259C318.416 258.081 317.746 261.361 317.746 265.101C317.746 268.797 318.506 272.137 320.033 275.129C321.569 278.112 323.668 280.444 326.33 282.131C329.001 283.81 332.013 284.647 335.358 284.647C338.417 284.647 341.135 283.878 343.516 282.335C345.905 280.797 347.769 278.613 349.113 275.792C350.465 272.97 351.144 269.69 351.144 265.95Z" fill="#B8A25D"/>
<path d="M371.933 287.213C369.817 287.213 367.773 286.916 365.806 286.33C363.848 285.743 362.095 284.919 360.55 283.865V276.488C361.608 279.208 363.23 281.273 365.414 282.675C367.598 284.082 369.872 284.783 372.24 284.783C374.604 284.783 376.579 284.001 378.162 282.437C379.753 280.874 380.551 278.932 380.551 276.607C380.551 275.069 380.231 273.752 379.596 272.664C378.968 271.568 377.961 270.54 376.575 269.588C375.184 268.627 373.23 267.557 370.704 266.375C367.155 264.756 364.569 263.061 362.957 261.293C361.352 259.526 360.55 257.384 360.55 254.868C360.55 252.718 361.067 250.798 362.103 249.107C363.149 247.42 364.561 246.124 366.336 245.214C368.11 244.296 370.056 243.838 372.172 243.838C374.015 243.838 375.811 244.092 377.565 244.602C379.314 245.112 380.944 245.835 382.445 246.761V253.339C381.464 251.108 379.988 249.374 378.008 248.138C376.037 246.905 374.036 246.285 372.001 246.285C369.668 246.285 367.786 247.041 366.353 248.546C364.928 250.041 364.219 251.826 364.219 253.9C364.219 255.395 364.646 256.683 365.499 257.758C366.361 258.837 367.415 259.742 368.656 260.477C369.894 261.204 371.643 262.092 373.896 263.146C376.17 264.246 378.043 265.266 379.51 266.205C380.978 267.136 382.198 268.355 383.179 269.86C384.156 271.355 384.647 273.183 384.647 275.333C384.647 277.772 384.067 279.884 382.906 281.672C381.746 283.466 380.197 284.834 378.264 285.786C376.327 286.738 374.22 287.213 371.933 287.213Z" fill="#B8A25D"/>
<path d="M15.0665 307.11L13.7695 310.186H15.1988L16.1758 307.9H21.9312L22.9039 310.186H24.3545L23.0362 307.11L22.81 306.574L19.4908 298.832H18.6119L15.2969 306.574L15.0665 307.11ZM19.0513 301.182L21.3595 306.574H16.7432L19.0513 301.182Z" fill="#B8A25D"/>
<path d="M31.2935 298.832H27.0825V310.186H31.2935C34.4293 310.186 36.9848 307.641 36.9848 304.518C36.9848 301.39 34.4293 298.832 31.2935 298.832ZM31.2935 308.856H28.3966V300.162H31.2935C33.6997 300.162 35.6495 302.121 35.6495 304.518C35.6495 306.914 33.6997 308.856 31.2935 308.856Z" fill="#B8A25D"/>
<path d="M45.0103 307.836L41.1578 298.832H39.7285L44.5709 310.186H45.4498L50.3135 298.832H48.8629L45.0103 307.836Z" fill="#B8A25D"/>
<path d="M64.4039 304.518C64.4039 301.39 61.8526 298.832 58.7125 298.832C55.5767 298.832 53.0254 301.39 53.0254 304.518C53.0254 307.641 55.5767 310.186 58.7125 310.186C61.8526 310.186 64.4039 307.641 64.4039 304.518ZM54.3394 304.518C54.3394 302.121 56.3063 300.162 58.7125 300.162C61.1188 300.162 63.0728 302.104 63.0728 304.518C63.0728 306.914 61.1188 308.856 58.7125 308.856C56.3063 308.856 54.3394 306.914 54.3394 304.518Z" fill="#B8A25D"/>
<path d="M72.7892 300.162C73.9454 300.162 75.0504 300.613 75.8652 301.441L76.8081 300.502C74.5939 298.297 70.9845 298.297 68.7574 300.502C67.6865 301.569 67.1021 302.997 67.1021 304.518C67.1021 306.022 67.6865 307.45 68.7574 308.516C69.8325 309.587 71.2618 310.186 72.7892 310.186C74.3037 310.186 75.733 309.587 76.8081 308.516L75.8652 307.577C75.0504 308.406 73.9454 308.856 72.7892 308.856C71.6202 308.856 70.5152 308.406 69.7003 307.577C68.8726 306.77 68.4161 305.665 68.4161 304.518C68.4161 303.349 68.8726 302.249 69.7003 301.441C70.5152 300.613 71.6202 300.162 72.7892 300.162Z" fill="#B8A25D"/>
<path d="M80.8185 307.11L79.5215 310.186H80.9507L81.9277 307.9H87.6831L88.6558 310.186H90.1064L88.7881 307.11L88.562 306.574L85.2427 298.832H84.3638L81.0489 306.574L80.8185 307.11ZM84.8033 301.182L87.1114 306.574H82.4952L84.8033 301.182Z" fill="#B8A25D"/>
<path d="M98.5211 300.162C99.6773 300.162 100.782 300.613 101.597 301.441L102.54 300.502C100.326 298.297 96.7164 298.297 94.4893 300.502C93.4185 301.569 92.834 302.997 92.834 304.518C92.834 306.022 93.4185 307.45 94.4893 308.516C95.5645 309.587 96.9937 310.186 98.5211 310.186C100.036 310.186 101.465 309.587 102.54 308.516L101.597 307.577C100.782 308.406 99.6773 308.856 98.5211 308.856C97.3521 308.856 96.2471 308.406 95.4322 307.577C94.6045 306.77 94.148 305.665 94.148 304.518C94.148 303.349 94.6045 302.249 95.4322 301.441C96.2471 300.613 97.3521 300.162 98.5211 300.162Z" fill="#B8A25D"/>
<path d="M106.566 310.186V298.832H105.252V310.186H106.566Z" fill="#B8A25D"/>
<path d="M110.597 307.11L109.3 310.186H110.73L111.707 307.9H117.462L118.435 310.186H119.885L118.567 307.11L118.341 306.574L115.022 298.832H114.143L110.828 306.574L110.597 307.11ZM114.582 301.182L116.89 306.574H112.274L114.582 301.182Z" fill="#B8A25D"/>
<path d="M138.237 300.162V298.832H128.335V310.186H138.237V308.856H129.649V305.164H135.195V303.855H129.649V300.162H138.237Z" fill="#B8A25D"/>
<path d="M152.391 300.162C153.547 300.162 154.652 300.613 155.467 301.441L156.41 300.502C154.195 298.297 150.586 298.297 148.359 300.502C147.288 301.569 146.704 302.997 146.704 304.518C146.704 306.022 147.288 307.45 148.359 308.516C149.434 309.587 150.863 310.186 152.391 310.186C153.905 310.186 155.335 309.587 156.41 308.516L155.467 307.577C154.652 308.406 153.547 308.856 152.391 308.856C151.222 308.856 150.117 308.406 149.302 307.577C148.474 306.77 148.018 305.665 148.018 304.518C148.018 303.349 148.474 302.249 149.302 301.441C150.117 300.613 151.222 300.162 152.391 300.162Z" fill="#B8A25D"/>
<path d="M170.501 304.518C170.501 301.39 167.949 298.832 164.809 298.832C161.673 298.832 159.122 301.39 159.122 304.518C159.122 307.641 161.673 310.186 164.809 310.186C167.949 310.186 170.501 307.641 170.501 304.518ZM160.436 304.518C160.436 302.121 162.403 300.162 164.809 300.162C167.215 300.162 169.169 302.104 169.169 304.518C169.169 306.914 167.215 308.856 164.809 308.856C162.403 308.856 160.436 306.914 160.436 304.518Z" fill="#B8A25D"/>
<path d="M181.766 307.726L174.154 298.832H173.199V310.186H174.513V301.293L182.124 310.186H183.101V298.832H181.766V307.726Z" fill="#B8A25D"/>
<path d="M192.573 308.856H189.015C187.991 308.856 187.159 308.032 187.159 307.012H185.845C185.845 308.758 187.257 310.186 189.015 310.186H192.573C194.314 310.186 195.748 308.758 195.748 307.012C195.748 305.261 194.314 303.855 192.573 303.855H189.015C187.991 303.855 187.159 303.026 187.159 302.006C187.159 300.987 187.991 300.162 189.015 300.162H192.573C193.584 300.162 194.412 300.987 194.412 302.006H195.748C195.748 300.26 194.314 298.832 192.573 298.832H189.015C187.257 298.832 185.845 300.26 185.845 302.006C185.845 303.757 187.257 305.164 189.015 305.164H192.573C193.584 305.164 194.412 305.992 194.412 307.012C194.412 308.032 193.584 308.856 192.573 308.856Z" fill="#B8A25D"/>
<path d="M207.059 305.244C207.059 307.237 205.433 308.856 203.432 308.856C201.431 308.856 199.806 307.237 199.806 305.244V298.832H198.492V305.244C198.492 307.968 200.702 310.186 203.432 310.186C206.163 310.186 208.394 307.968 208.394 305.244V298.832H207.059V305.244Z" fill="#B8A25D"/>
<path d="M212.452 298.832H211.138V310.186H221.04V308.856H212.452V298.832Z" fill="#B8A25D"/>
<path d="M223.784 298.832V300.162H228.059V310.186H229.39V300.162H233.686V298.832H223.784Z" fill="#B8A25D"/>
<path d="M247.809 304.518C247.809 301.39 245.258 298.832 242.118 298.832C238.982 298.832 236.431 301.39 236.431 304.518C236.431 307.641 238.982 310.186 242.118 310.186C245.258 310.186 247.809 307.641 247.809 304.518ZM237.745 304.518C237.745 302.121 239.712 300.162 242.118 300.162C244.524 300.162 246.478 302.104 246.478 304.518C246.478 306.914 244.524 308.856 242.118 308.856C239.712 308.856 237.745 306.914 237.745 304.518Z" fill="#B8A25D"/>
<path d="M260.411 302.006C260.411 300.26 258.977 298.832 257.236 298.832H250.508V310.186H251.822V305.164H255.142L259.451 310.186H261.187L256.895 305.164H257.236C258.977 305.164 260.411 303.757 260.411 302.006ZM251.822 303.855V300.162H257.236C258.248 300.162 259.075 300.987 259.075 302.006C259.075 303.026 258.248 303.855 257.236 303.855H251.822Z" fill="#B8A25D"/>
<path d="M265.216 310.186V298.832H263.902V310.186H265.216Z" fill="#B8A25D"/>
<path d="M269.247 307.11L267.95 310.186H269.379L270.356 307.9H276.111L277.084 310.186H278.535L277.216 307.11L276.99 306.574L273.671 298.832H272.792L269.477 306.574L269.247 307.11ZM273.232 301.182L275.54 306.574H270.923L273.232 301.182Z" fill="#B8A25D"/>
<path d="M290.948 310.186C293.683 310.186 295.91 307.968 295.91 305.244V298.832H294.574V305.244C294.574 307.237 292.949 308.856 290.948 308.856C289.975 308.856 289.062 308.487 288.379 307.807L287.91 307.335L286.984 308.257L287.437 308.729C288.379 309.668 289.617 310.186 290.948 310.186Z" fill="#B8A25D"/>
<path d="M307.174 305.244C307.174 307.237 305.548 308.856 303.547 308.856C301.546 308.856 299.921 307.237 299.921 305.244V298.832H298.607V305.244C298.607 307.968 300.817 310.186 303.547 310.186C306.278 310.186 308.509 307.968 308.509 305.244V298.832H307.174V305.244Z" fill="#B8A25D"/>
<path d="M321.156 302.007C321.156 300.26 319.722 298.832 317.982 298.832H311.253V310.186H312.567V305.164H315.887L320.196 310.186H321.932L317.64 305.164H317.982C319.722 305.164 321.156 303.757 321.156 302.007ZM312.567 303.855V300.162H317.982C318.993 300.162 319.82 300.987 319.82 302.007C319.82 303.026 318.993 303.855 317.982 303.855H312.567Z" fill="#B8A25D"/>
<path d="M326.742 294.817L325.522 294.281L324.319 296.954L325.522 297.507L326.742 294.817ZM326.192 310.186V298.832H324.873V310.186H326.192Z" fill="#B8A25D"/>
<path d="M333.376 298.832H329.166V310.186H333.376C336.512 310.186 339.068 307.641 339.068 304.518C339.068 301.39 336.512 298.832 333.376 298.832ZM333.376 308.856H330.48V300.162H333.376C335.783 300.162 337.732 302.121 337.732 304.518C337.732 306.914 335.783 308.856 333.376 308.856Z" fill="#B8A25D"/>
<path d="M343.126 310.186V298.832H341.812V310.186H343.126Z" fill="#B8A25D"/>
<path d="M351.547 300.162C352.703 300.162 353.808 300.613 354.623 301.441L355.566 300.502C353.352 298.297 349.742 298.297 347.515 300.502C346.444 301.569 345.86 302.997 345.86 304.518C345.86 306.022 346.444 307.45 347.515 308.516C348.59 309.587 350.02 310.186 351.547 310.186C353.062 310.186 354.491 309.587 355.566 308.516L354.623 307.577C353.808 308.406 352.703 308.856 351.547 308.856C350.378 308.856 349.273 308.406 348.458 307.577C347.63 306.77 347.174 305.665 347.174 304.518C347.174 303.349 347.63 302.249 348.458 301.441C349.273 300.613 350.378 300.162 351.547 300.162Z" fill="#B8A25D"/>
<path d="M359.576 307.11L358.279 310.186H359.709L360.686 307.9H366.441L367.414 310.186H368.864L367.546 307.11L367.32 306.574L364.001 298.832H363.122L359.807 306.574L359.576 307.11ZM363.561 301.182L365.869 306.574H361.253L363.561 301.182Z" fill="#B8A25D"/>
<defs>
<clipPath id="clip0_147_6866">
<rect width="217.074" height="237.412" fill="white" transform="translate(104.318)"/>
</clipPath>
</defs>
</svg>
