<svg width="520" height="114" viewBox="0 0 520 114" fill="none" xmlns="http://www.w3.org/2000/svg">
<g clip-path="url(#clip0_159_2932)">
<path d="M92.9522 3.85427C93.1434 4.30111 91.2327 7.09439 91.2327 7.09439C90.6569 10.7997 88.6811 12.281 88.6811 12.281V13.3726C88.5549 17.2085 86.6992 20.7853 86.6992 20.7853L86.6544 23.7806L86.6341 25.0028C86.4123 25.2884 86.1376 25.5047 85.8059 25.6516C84.5972 30.6363 81.7912 33.5112 81.7912 33.5112C80.2671 35.7801 76.5841 39.1181 73.6174 41.6135C72.7058 42.3848 71.8573 43.0805 71.1654 43.6416C70.0544 44.5435 69.326 45.1046 69.326 45.1046C69.5457 45.8065 70.4227 46.1595 70.4227 46.1595V46.1758C70.5652 46.5369 72.8564 52.3153 73.1392 54.1333C73.1779 54.8964 73.1779 55.6615 73.1392 56.4246C73.0578 56.8204 71.2468 57.5305 71.2468 57.5305C68.337 61.6398 67.3054 57.453 67.3054 57.453C65.413 58.3201 63.5227 50.3422 62.8919 50.5789C62.2611 50.8156 60.9202 52.7111 60.9202 52.7111C60.8408 55.0841 57.0581 62.509 57.0581 62.509C57.4528 63.8536 56.8221 63.8536 56.8221 63.8536C57.2127 65.5104 56.584 65.2737 56.584 65.2737C57.754 68.0303 58.7531 70.8501 59.5813 73.7291C60.4481 74.4391 59.5813 74.9941 59.5813 74.9941C60.9202 76.0979 59.9048 76.4162 59.9048 76.4162L61.1643 79.4952C64.9471 85.3286 68.1824 93.2432 68.1824 93.2432C68.4184 93.7166 67.7103 95.6937 67.7103 95.6937C69.6007 96.1671 66.8435 96.9588 66.8435 96.9588C69.678 99.6419 73.4607 110.309 73.4607 110.309C75.1984 110.862 78.741 113.708 78.741 113.708C89.3078 135.679 87.0227 148.793 87.0227 148.793C87.7349 150.453 86.1559 151.165 86.1559 151.165C86.4794 155.589 85.5292 156.911 85.5292 156.911L26.5583 157.848L27.1097 132.357C26.4932 130.941 24.727 129.795 24.727 129.795C24.727 129.795 24.375 116.434 24.554 115.106C24.731 113.776 25.1665 113.945 25.1665 113.945L24.9671 100.678C24.9671 99.7622 24.379 99.499 24.379 99.499C22.7451 100.546 20.1751 98.0932 20.1751 98.0932C22.271 94.2491 21.6096 92.627 21.6096 92.627C21.1925 93.5289 15.3282 99.4052 15.3282 99.4052C15.4645 100.158 13.916 101.217 13.916 101.217L10.0682 103.249L7.93368 104.373L7.75462 104.467C7.75462 104.467 6.11863 104.671 5.88056 104.229C5.64045 103.784 6.08404 102.347 6.08404 102.347C5.76661 102.36 5.51633 102.233 5.3332 101.972C5.06257 101.56 5.16227 99.5276 5.16227 99.5276C5.16227 99.5276 4.5152 99.6745 4.45009 99.4337C4.40532 99.1644 4.39108 98.893 4.41143 98.6217L8.91243 96.1732L11.6838 94.6797L12.5466 94.2124L13.6535 93.6105C14.4349 92.9617 17.3304 85.3674 17.3304 85.3674C17.3935 80.5786 21.7114 75.645 21.7114 75.645C22.2547 75.3206 24.4116 71.8458 24.4116 71.8458L21.8396 69.7197C19.1251 70.2584 19.2371 67.7365 19.2371 67.7365L16.3273 64.68C16.1421 60.0708 20.8954 59.3036 20.8954 59.3036C21.4489 56.1369 23.8052 58.8404 23.8052 58.8404L25.6793 58.7772C25.4005 57.5489 27.9766 58.7486 27.9766 58.7486C28.0071 58.4405 28.4364 56.7205 28.4364 56.7205C28.0397 56.6593 27.7548 55.8615 27.7548 55.8615C28.1292 55.0678 29.7977 50.3035 29.7977 50.3035C30.0012 49.8281 30.2718 49.3955 30.6096 49.0058C30.9474 48.6161 31.3381 48.2896 31.7796 48.0223C32.2212 47.7571 32.6933 47.5653 33.1959 47.4469C33.6985 47.3306 34.2051 47.2939 34.7179 47.3368C36.0934 45.7881 39.7215 44.4945 39.7215 44.4945C39.7215 44.2946 39.693 44.0987 39.636 43.9069C38.2625 43.3662 40.1793 41.3605 40.1793 41.3605C40.4296 38.3081 39.6788 38.0571 39.6788 38.0571C38.7082 37.9735 38.3846 36.2596 38.3846 36.2596C38.2992 35.5107 38.0204 34.8415 37.5504 34.2518C34.9234 34.7966 35.1757 32.289 35.1757 32.289C34.4249 32.3726 34.5063 30.4934 34.5063 30.4934C32.5854 29.9589 34.2702 27.0207 34.3374 26.9024L31.6698 29.2386C30.7602 30.7097 30.5547 28.1205 30.5547 28.1205C31.0125 27.2411 33.2671 25.7373 33.2671 25.7373C33.3586 25.4149 33.381 25.0844 33.3383 24.7518C33.2935 24.4172 33.1857 24.105 33.0148 23.8153C29.0123 22.8951 31.0552 20.8057 31.0552 20.8057C34.0179 22.4768 35.1432 22.3503 35.1432 22.3503C36.3946 22.0279 36.4353 18.4226 36.4353 18.4226C35.9347 13.4502 41.4796 14.2867 41.4796 14.2867C46.6073 10.1896 47.2991 14.452 47.2991 14.452C52.8867 13.9929 52.3862 18.5491 52.3862 18.5491C55.8067 18.0471 55.3488 20.9322 55.3488 20.9322C56.0977 21.0995 56.3886 22.9808 56.3886 22.9808C56.525 24.1254 56.4985 25.268 56.3052 26.4066C56.3052 26.8248 55.5544 27.1574 55.5544 27.1574C55.9308 27.6594 55.6805 28.704 55.6805 28.704C57.2982 29.9997 55.6805 31.2117 55.6805 31.2117C56.2665 33.1337 53.0556 34.3049 53.0556 34.3049C53.7637 38.9875 50.4266 38.8202 50.4266 38.8202C51.5946 39.6976 52.3048 41.1585 52.5123 41.2013C52.7199 41.2442 53.0983 41.285 53.0983 41.285C53.5114 40.1995 53.7637 41.1177 53.7637 41.1177C54.2236 40.9932 54.3884 41.6196 54.3884 41.6196L55.0579 40.9932C55.9593 40.2118 56.9726 39.6262 58.0999 39.2365C57.9738 38.402 58.9769 38.6937 58.9769 38.6937C58.6005 37.9408 59.685 38.0245 59.685 38.0245C59.3615 37.4001 60.6841 37.4797 60.6841 37.4797L60.9344 37.1043C59.7257 33.8866 64.2756 36.0555 64.2756 36.0555C64.5665 35.5515 66.6359 34.1804 68.4245 33.0602C69.2446 32.542 70.0076 32.087 70.5102 31.7626L71.1166 31.3994C71.2367 31.3341 71.3526 31.2606 71.4625 31.179C73.0151 30.0548 74.2604 27.3778 74.2604 27.3778C74.9461 26.5963 76.0327 23.9459 76.0327 23.9459C76.1711 23.7092 76.3339 23.4684 76.4885 23.2338L76.8568 22.7012L77.0216 22.4646L77.0542 22.4197L77.0725 22.3911L77.0989 22.3585L77.1417 22.2993C77.2739 22.1116 77.3574 21.9973 77.3574 21.9973C77.6544 21.6688 77.9108 21.3097 78.1306 20.9261C79.8256 18.0471 82.9165 11.1282 82.9165 11.1282C83.1261 10.7507 82.9673 9.52244 82.9673 9.52244C82.361 9.0858 81.9316 8.51449 81.6752 7.8126C81.5267 5.86404 81.5613 3.91956 81.781 1.97712C82.2633 1.2283 83.297 1.57313 83.297 1.57313C83.3356 1.51396 83.3743 1.46295 83.415 1.4099C84.3836 0.17955 85.4681 1.48539 85.4681 1.48539C85.6716 1.33644 86.3472 1.42622 86.3472 1.42622C86.3675 1.12424 86.4245 0.83043 86.5222 0.544777C86.75 0.146904 87.4236 -0.265252 88.3169 0.0550867C89.2081 0.377466 88.5386 1.62414 88.4898 1.72208C89.2203 0.683523 90.0525 0.661079 90.0525 0.661079C92.5004 2.36684 90.0525 4.42558 90.0525 4.42558C90.7668 4.46026 91.481 3.38498 91.481 3.38498C91.66 3.09933 91.8045 1.59557 91.8045 1.59557C92.2339 -0.0877401 93.1638 1.02223 93.1638 1.02223C93.2126 1.97508 93.1434 2.91978 92.9522 3.85427Z" fill="#174F40"/>
<path d="M5.64662 92.3884C5.64662 92.3884 0.936036 94.3614 2.45197 97.0364C2.6758 97.3159 2.93422 97.5587 3.2252 97.7648C3.07055 97.7954 2.91591 97.7933 2.76126 97.7607C2.60662 97.7281 2.46418 97.6648 2.33599 97.573C2.20779 97.4812 2.10198 97.3669 2.02059 97.2322C1.93716 97.0955 1.88629 96.9507 1.86391 96.7936C1.86391 96.7936 2.45197 93.2902 2.16506 93.0291C2.08774 92.8148 1.95955 92.6373 1.77641 92.4986C1.53224 93.9472 1.38573 95.4081 1.33689 96.8772C1.33689 96.8772 1.47933 98.3687 3.2781 98.4687C3.2781 98.4687 5.19693 99.1176 6.67217 97.7627C6.67217 97.7627 9.02848 95.5428 11.6249 95.2755C11.6249 95.2755 12.6606 95.1307 11.5089 94.5981C11.8528 94.388 12.2252 94.2512 12.624 94.19C13.0228 94.1268 13.4176 94.1451 13.8083 94.2431C13.8083 94.2431 14.2702 93.6514 13.3402 93.5249C13.3402 93.5249 11.3644 93.38 10.9819 93.4963C10.9819 93.4963 9.44562 94.1451 8.88808 94.7675L1.88019 51.0666C1.49968 50.428 1.00318 49.8975 0.390706 49.4792C0.120077 49.8873 -0.0488132 50.3342 -0.117997 50.8177C-0.217703 51.436 6.23265 96.4814 6.23265 96.4814C6.23265 96.4814 3.61385 97.3057 2.86911 96.7344C2.1264 96.1651 5.89894 94.1737 5.89894 94.1737" fill="#174F40"/>
<path d="M8.40576 91.7782C9.44352 92.0414 10.3205 93.0453 10.3205 93.0453C10.3205 93.0453 9.004 92.982 8.60314 93.0004" fill="#174F40"/>
<path d="M10.0682 103.249L10.1191 104.22C10.3043 104.698 10.6196 105.057 11.0673 105.304C12.3309 106.032 10.3897 107.371 10.3897 107.371C10.3897 107.371 10.9493 108.711 10.2615 108.928C9.57172 109.144 9.4537 107.754 9.4537 107.754C9.01825 107.92 8.56856 107.993 8.10462 107.979C8.10462 107.979 7.1157 107.816 7.89097 106.104C7.89097 106.104 8.13718 104.837 7.94998 104.378" fill="#174F40"/>
<path d="M86.6445 24.9639C86.8317 25.2088 87.0535 25.4169 87.3079 25.5903C87.5643 25.7617 87.839 25.8903 88.134 25.9739C88.4311 26.0596 88.7322 26.0943 89.0395 26.08C89.3468 26.0678 89.6459 26.0066 89.9328 25.8964L94.5172 29.9119C94.5172 29.9119 97.6834 30.3505 97.5959 28.5162C97.3436 28.4591 97.0974 28.4816 96.8593 28.5836C96.6212 28.6876 96.436 28.8509 96.3017 29.0733C96.3017 29.0733 95.3128 29.1182 94.0105 27.9939L90.5799 25.2455C90.5799 25.2455 88.423 25.3435 88.2459 25.0027C88.2459 25.0027 87.55 23.705 86.6506 23.7805" fill="#174F40"/>
<path d="M75.8069 48.4447C75.5628 45.6677 70.0566 30.3241 70.0566 30.3241C70.0566 30.3241 71.369 45.7575 71.2083 47.5347M70.2641 22.3972C70.2641 22.3972 70.9844 24.1989 69.9853 23.9846C68.9863 23.7704 70.0952 22.4156 70.0952 22.4156L70.2641 22.3972ZM96.6556 29.6753C96.6556 29.6753 96.3321 30.9138 96.6882 31.0607C97.0422 31.2055 97.9538 30.6526 97.2213 29.2815L96.6556 29.6753ZM92.1729 55.2085C92.4965 52.5152 97.2498 36.3779 97.2498 36.3779L97.1053 30.9893L92.1729 55.2085ZM102.892 54.6332C102.062 50.7626 97.4411 36.9002 97.4411 36.9002C97.4411 36.9002 97.9864 50.9217 97.8908 53.5477L102.892 54.6332ZM66.2026 48.6855C66.3675 43.8885 69.8856 29.8956 69.8856 29.8956L69.9853 23.9846L66.2026 48.6855Z" stroke="#1F6955" stroke-width="0.827481" stroke-miterlimit="10"/>
<path d="M91.3057 55.533C91.3057 55.533 93.0556 61.6664 97.5932 61.6113C102.129 61.5562 103.6 57.8876 103.71 55.0372C103.234 54.774 102.741 54.5434 102.233 54.3475C101.724 54.1517 101.205 53.9905 100.676 53.864C100.147 53.7395 99.6097 53.6497 99.0685 53.5967C98.5272 53.5457 97.9839 53.5293 97.4386 53.5518C96.8953 53.5722 96.354 53.6314 95.8189 53.7273C95.2837 53.8232 94.7567 53.9537 94.2378 54.1211C93.7189 54.2884 93.2143 54.4904 92.7239 54.7271C92.2335 54.9637 91.7615 55.2331 91.3057 55.533Z" fill="#174F40"/>
<path d="M78.1407 20.8997C78.1407 20.8997 72.8318 21.9137 71.9263 22.0035C71.4136 22.0647 70.911 22.0178 70.4185 21.8648C70.4185 21.8648 70.0502 21.0037 69.2648 21.0425C69.2648 21.0425 68.4733 22.0341 71.204 23.0829L77.1639 22.2953L76.8791 22.7074C76.7631 22.8707 76.639 23.0523 76.5108 23.24" fill="#174F40"/>
<path d="M73.1515 54.1394L70.4351 46.184C70.5775 46.5308 72.8707 52.3214 73.1515 54.1394Z" fill="#174F40"/>
<path d="M64.6479 49.5404C64.6479 49.5404 66.3959 55.6738 70.9294 55.6187C75.463 55.5636 76.9402 51.893 77.0501 49.0446C76.574 48.7814 76.0816 48.5508 75.5728 48.3549C75.0662 48.1591 74.5473 47.9979 74.0162 47.8714C73.4872 47.7469 72.952 47.6571 72.4087 47.6041C71.8675 47.5531 71.3242 47.5367 70.7809 47.5592C70.2355 47.5796 69.6963 47.6388 69.1591 47.7347C68.624 47.8306 68.097 47.9611 67.5781 48.1285C67.0592 48.2958 66.5566 48.4978 66.0642 48.7345C65.5738 48.9711 65.1017 49.2405 64.6479 49.5404Z" fill="#174F40"/>
<path d="M71.3508 57.2877C65.2078 49.6546 61.598 37.7959 61.598 37.7959C63.1852 40.5831 71.3508 57.2877 71.3508 57.2877ZM52.1768 21.7749C43.6082 18.6021 36.3318 24.0173 36.3318 24.0173C42.1167 21.4056 52.1768 21.7749 52.1768 21.7749ZM30.8032 52.4969C31.1816 52.1724 36.4559 52.7295 41.8848 51.0706C47.3096 49.673 52.8788 46.0635 53.8474 43.5151C53.8474 43.4437 50.3435 46.4777 45.8587 48.5916C41.3862 50.8278 35.9472 52.1398 32.4005 51.3624L30.8032 52.4969ZM26.4059 88.281L33.2449 89.9827C38.0939 87.3914 50.9417 80.7581 52.2643 78.6953C53.5869 76.6304 52.5085 66.1898 52.5085 66.1898C52.5085 66.1898 51.4911 69.1076 50.022 74.5452C48.5549 79.9848 34.5533 87.067 34.5533 87.067L29.5802 87.3343L25.3784 85.4918L26.4059 88.281ZM19.5568 64.2005C19.8172 63.2905 20.9567 63.1395 21.1744 62.7538C21.3901 62.3682 26.7722 61.8887 26.7722 61.8887C26.7722 61.8887 23.4351 61.699 21.1744 61.7949C18.9138 61.8928 18.3745 64.3882 18.3745 64.3882L23.9703 68.7219L19.5568 64.2005ZM42.7251 90.8947C42.7251 90.8947 44.5259 92.7025 47.8752 92.4148C51.2266 92.1251 55.6014 86.2569 56.1142 83.988C56.629 81.7191 56.1142 76.1836 56.1142 76.1836L55.3349 81.6008C53.0172 86.5059 45.2931 90.6376 45.2931 90.6376L42.7251 90.8947ZM29.7227 113.543C29.7227 113.543 35.3469 114.626 36.5942 113.741C37.8436 112.855 44.8434 108.466 44.8434 108.466C44.8434 108.466 34.9705 111.709 34.6713 111.539C34.3702 111.372 27.7164 98.4727 27.7164 98.4727L29.7227 113.543ZM0.299316 51.3114C0.299316 51.3114 6.20637 93.7431 6.73339 94.696C6.73339 94.696 1.09086 52.8764 0.299316 51.3114ZM8.45077 104.939C8.45077 104.939 8.19845 106.908 7.83422 107.01L8.55658 107.632L8.23508 106.906L8.45077 104.939ZM101.163 59.8483C101.163 59.8483 103.54 57.1306 103.259 55.9573L101.163 59.8483ZM74.4804 54.1312C74.4804 54.1312 76.857 51.4114 76.5783 50.2402Z" fill="#BEDAD2"/>
</g>
<path d="M126.481 26.0259V44.1497H137.5C139.064 44.1497 140.112 43.918 140.645 43.4547C141.178 42.9913 141.445 42.6082 141.445 42.2963V48.5692C141.445 48.44 141.347 48.2395 141.161 47.9633C140.97 47.6782 140.583 47.402 140.005 47.1257C139.437 46.854 138.601 46.7159 137.5 46.7159H126.481V61.4715C126.481 63.1244 126.685 64.3897 127.103 65.2673C127.529 66.1361 127.996 66.7287 128.507 67.0494C129.013 67.3702 129.271 67.486 129.271 67.4058H119.159C119.159 67.486 119.412 67.3836 119.923 67.0851C120.429 66.791 120.887 66.2074 121.291 65.3386C121.691 64.461 121.896 63.1734 121.896 61.4715V29.7148C121.896 27.9684 121.691 26.6407 121.291 25.7229C120.887 24.8096 120.429 24.1725 119.923 23.8161C119.412 23.4508 119.159 23.3305 119.159 23.4597H142.209V29.9821C141.996 28.9619 141.396 28.0486 140.414 27.2377C139.441 26.4313 138.068 26.0259 136.291 26.0259H126.481Z" fill="#174F40"/>
<path d="M147.244 67.4061C147.244 67.5353 147.497 67.4417 148.008 67.1209C148.515 66.8002 148.972 66.1675 149.377 65.2141C149.777 64.2518 149.981 62.8573 149.981 61.0262V29.6616C149.981 27.9151 149.777 26.5875 149.377 25.6697C148.972 24.7564 148.515 24.1282 148.008 23.7807C147.497 23.4377 147.244 23.3307 147.244 23.4599H170.295V29.8576C169.535 27.3048 167.242 26.0261 163.417 26.0261H154.566V44.1499H165.514C166.367 44.1499 167.087 44.0162 167.682 43.74C168.273 43.4683 168.717 43.1831 169.015 42.8846C169.308 42.5906 169.482 42.3945 169.53 42.2965V48.4982C169.482 48.418 169.308 48.2264 169.015 47.9279C168.717 47.6339 168.286 47.3576 167.718 47.1082C167.149 46.8498 166.438 46.7161 165.585 46.7161H154.566V64.8577H164.501C166.407 64.8577 168.046 64.4656 169.424 63.6815C170.81 62.8885 171.796 61.8727 172.392 60.6342L171.254 67.4061H147.244Z" fill="#174F40"/>
<path d="M180.104 29.412C180.104 27.7012 179.9 26.4136 179.5 25.5449C179.096 24.6672 178.638 24.0791 178.131 23.7806C177.62 23.4866 177.367 23.3796 177.367 23.4598H187.48C187.48 23.3796 187.222 23.4866 186.715 23.7806C186.204 24.0791 185.738 24.6672 185.311 25.5449C184.894 26.4136 184.689 27.7012 184.689 29.412V64.8576H195.139C197.045 64.8576 198.685 64.4655 200.062 63.6814C201.449 62.8884 202.435 61.8726 203.03 60.6341L201.875 67.406H177.367C177.367 67.5352 177.62 67.4416 178.131 67.1208C178.638 66.8001 179.096 66.1674 179.5 65.214C179.9 64.2517 180.104 62.8572 180.104 61.0261V29.412Z" fill="#174F40"/>
<path d="M206.018 67.406C206.018 67.5352 206.271 67.4416 206.782 67.1208C207.289 66.8001 207.76 66.2075 208.186 65.3388C208.613 64.4611 208.826 63.1735 208.826 61.4716V29.412C208.826 27.7012 208.622 26.4136 208.222 25.5449C207.818 24.6672 207.36 24.0791 206.853 23.7806C206.342 23.4866 206.089 23.3796 206.089 23.4598H216.202C216.202 23.3796 215.944 23.4866 215.437 23.7806C214.926 24.0791 214.46 24.6672 214.033 25.5449C213.616 26.4136 213.411 27.7012 213.411 29.412V61.4716C213.411 63.1735 213.616 64.4611 214.033 65.3388C214.46 66.2075 214.926 66.7912 215.437 67.0852C215.944 67.3837 216.202 67.4862 216.202 67.406H206.018Z" fill="#174F40"/>
<path d="M249.896 35.3463C249.896 37.819 249.31 40.0243 248.137 41.9578C246.973 43.8959 245.311 45.4151 243.143 46.52C240.984 47.6249 238.438 48.1773 235.501 48.1773C233.724 48.1773 231.813 47.9902 229.778 47.607V61.5251C229.778 63.1914 229.983 64.4611 230.4 65.3388C230.827 66.2075 231.293 66.7912 231.804 67.0852C232.311 67.3837 232.568 67.4862 232.568 67.406H222.456C222.456 67.4862 222.709 67.3837 223.22 67.0852C223.727 66.7912 224.184 66.2209 224.589 65.3744C224.989 64.519 225.193 63.2359 225.193 61.5251V29.5367C225.193 27.8259 224.989 26.525 224.589 25.634C224.184 24.7429 223.727 24.137 223.22 23.8162C222.709 23.4955 222.456 23.3796 222.456 23.4598H234.932C237.1 23.4598 238.882 23.6024 240.282 23.8875C241.677 24.1638 242.912 24.5736 243.978 25.1172C245.884 26.1062 247.346 27.523 248.368 29.3763C249.385 31.2297 249.896 33.2212 249.896 35.3463ZM244.991 36.1661C244.991 33.1499 244.054 30.7085 242.183 28.8417C240.322 26.9661 237.838 26.026 234.737 26.026H229.778V45.1121C231.6 45.4596 233.51 45.6289 235.501 45.6289C238.473 45.6289 240.797 44.7691 242.468 43.0449C244.147 41.3252 244.991 39.0308 244.991 36.1661Z" fill="#174F40"/>
<path d="M253.853 67.4061C253.853 67.5353 254.106 67.4417 254.617 67.1209C255.124 66.8002 255.581 66.1675 255.986 65.2141C256.386 64.2518 256.59 62.8573 256.59 61.0262V29.6616C256.59 27.9151 256.386 26.5875 255.986 25.6697C255.581 24.7564 255.124 24.1282 254.617 23.7807C254.106 23.4377 253.853 23.3307 253.853 23.4599H276.904V29.8576C276.144 27.3048 273.851 26.0261 270.026 26.0261H261.175V44.1499H272.123C272.976 44.1499 273.696 44.0162 274.291 43.74C274.882 43.4683 275.326 43.1831 275.624 42.8846C275.917 42.5906 276.09 42.3945 276.139 42.2965V48.4982C276.09 48.418 275.917 48.2264 275.624 47.9279C275.326 47.6339 274.895 47.3576 274.327 47.1082C273.758 46.8498 273.047 46.7161 272.194 46.7161H261.175V64.8577H271.11C273.016 64.8577 274.655 64.4656 276.033 63.6815C277.419 62.8885 278.405 61.8727 279.001 60.6342L277.863 67.4061H253.853Z" fill="#174F40"/>
<path d="M308.365 68.1722C306.161 68.1722 304.033 67.8604 301.985 67.2456C299.945 66.6307 298.119 65.7664 296.511 64.6615V56.9273C297.613 59.7786 299.301 61.9439 301.576 63.4141C303.851 64.8888 306.219 65.6239 308.685 65.6239C311.146 65.6239 313.203 64.8041 314.852 63.1646C316.509 61.5251 317.34 59.4891 317.34 57.0521C317.34 55.4393 317.007 54.0582 316.345 52.9176C315.691 51.7682 314.643 50.69 313.199 49.6921C311.75 48.6852 309.715 47.5625 307.085 46.3239C303.389 44.6265 300.696 42.8489 299.017 40.9955C297.346 39.1421 296.511 36.8967 296.511 34.2592C296.511 32.0049 297.048 29.9911 298.128 28.218C299.217 26.4493 300.687 25.0904 302.536 24.137C304.384 23.1747 306.41 22.6935 308.614 22.6935C310.533 22.6935 312.404 22.9608 314.23 23.4954C316.051 24.0301 317.749 24.7875 319.312 25.7587V32.6554C318.291 30.3164 316.753 28.4986 314.692 27.2022C312.639 25.9102 310.555 25.2597 308.436 25.2597C306.006 25.2597 304.046 26.0527 302.553 27.6299C301.069 29.1981 300.332 31.0693 300.332 33.2434C300.332 34.8117 300.776 36.1616 301.665 37.2888C302.562 38.4204 303.66 39.3693 304.953 40.1401C306.241 40.9019 308.063 41.8331 310.409 42.938C312.777 44.0919 314.727 45.1611 316.256 46.1457C317.784 47.1214 319.055 48.4 320.077 49.9772C321.094 51.5454 321.605 53.4612 321.605 55.7155C321.605 58.2728 321.001 60.487 319.792 62.3627C318.584 64.2428 316.971 65.6773 314.958 66.6753C312.941 67.6733 310.746 68.1722 308.365 68.1722Z" fill="#174F40"/>
<path d="M334.916 50.3516L330.846 60.5094C330.206 62.091 329.886 63.392 329.886 64.4122C329.886 65.8156 330.526 66.8135 331.806 67.4061H322.688C323.115 67.4061 323.728 66.9873 324.537 66.1408C325.341 65.2854 326.278 63.6013 327.345 61.0797L343.962 21.4284L360.454 61.2757C361.387 63.5702 362.289 65.1428 363.156 65.9982C364.031 66.8536 364.724 67.3259 365.235 67.4061H354.661C355.727 66.8982 356.26 66.1052 356.26 65.0359C356.26 64.1449 355.922 62.8707 355.247 61.2044L350.786 50.3516H334.916ZM349.756 47.7319L342.824 30.6774L336 47.7319H349.756Z" fill="#174F40"/>
<path d="M408.232 23.4599C407.637 23.5936 407.05 24.0748 406.473 24.9034C405.904 25.7366 405.62 27.1934 405.62 29.2695V69.1882L373.008 31.0694V61.65C373.008 63.6949 373.368 65.1339 374.092 65.9626C374.812 66.7957 375.514 67.2769 376.189 67.4061H367.214C367.805 67.2769 368.409 66.7957 369.027 65.9626C369.64 65.1339 369.951 63.6771 369.951 61.5965V29.6616C369.951 28.2137 369.458 26.8949 368.476 25.7054C367.503 24.5069 366.272 23.7584 364.779 23.4599H372.688L402.563 58.4066V29.2695C402.563 25.9905 401.452 24.0569 399.24 23.4599H408.232Z" fill="#174F40"/>
<path d="M418.659 26.0261C416.797 26.0261 415.251 26.3915 414.02 27.1132C412.785 27.826 411.892 28.7438 411.336 29.8576L412.225 23.4599H442.42L443.309 29.8576C442.762 28.7438 441.874 27.826 440.643 27.1132C439.408 26.3915 437.857 26.0261 435.986 26.0261H429.624V61.4718C429.624 63.1736 429.837 64.4746 430.264 65.3745C430.69 66.2656 431.157 66.8626 431.668 67.1566C432.174 67.4506 432.432 67.5353 432.432 67.4061H422.302C422.302 67.5353 422.555 67.4506 423.066 67.1566C423.573 66.8626 424.03 66.2789 424.435 65.4102C424.834 64.5325 425.039 63.2182 425.039 61.4718V26.0261H418.659Z" fill="#174F40"/>
<path d="M444.961 45.9497C444.961 41.4366 445.925 37.4135 447.858 33.885C449.799 30.3476 452.519 27.5942 456.015 25.6339C459.521 23.6737 463.568 22.6935 468.154 22.6935C471.979 22.6935 475.556 23.54 478.888 25.2241C482.216 26.8992 484.886 29.4253 486.903 32.7979C488.929 36.1616 489.942 40.2025 489.942 44.9161C489.942 49.4337 488.974 53.4612 487.045 56.9986C485.113 60.5271 482.394 63.2715 478.888 65.2318C475.378 67.1921 471.335 68.1722 466.75 68.1722C462.933 68.1722 459.356 67.3347 456.015 65.6595C452.683 63.9754 450.008 61.4493 447.982 58.0857C445.965 54.7264 444.961 50.6811 444.961 45.9497ZM484.842 45.8784C484.842 42.0068 484.042 38.5095 482.442 35.3819C480.852 32.2455 478.666 29.7996 475.885 28.0398C473.112 26.271 469.984 25.3845 466.501 25.3845C463.311 25.3845 460.476 26.1953 457.988 27.8081C455.509 29.4253 453.567 31.7108 452.159 34.6691C450.759 37.6274 450.062 41.0668 450.062 44.9874C450.062 48.8634 450.852 52.3652 452.443 55.5016C454.043 58.6292 456.229 61.0751 459.001 62.8438C461.782 64.6036 464.919 65.4813 468.402 65.4813C471.588 65.4813 474.418 64.6749 476.898 63.0577C479.386 61.4449 481.327 59.1549 482.727 56.1967C484.135 53.2384 484.842 49.799 484.842 45.8784Z" fill="#174F40"/>
<path d="M506.492 68.1722C504.288 68.1722 502.16 67.8604 500.112 67.2456C498.072 66.6307 496.246 65.7664 494.638 64.6615V56.9273C495.74 59.7786 497.428 61.9439 499.703 63.4141C501.978 64.8888 504.346 65.6239 506.812 65.6239C509.273 65.6239 511.33 64.8041 512.979 63.1646C514.636 61.5251 515.467 59.4891 515.467 57.0521C515.467 55.4393 515.133 54.0582 514.471 52.9176C513.818 51.7682 512.77 50.69 511.326 49.6921C509.877 48.6852 507.842 47.5625 505.212 46.3239C501.516 44.6265 498.823 42.8489 497.144 40.9955C495.473 39.1421 494.638 36.8967 494.638 34.2592C494.638 32.0049 495.175 29.9911 496.255 28.218C497.344 26.4493 498.814 25.0904 500.662 24.137C502.511 23.1747 504.537 22.6935 506.741 22.6935C508.66 22.6935 510.53 22.9608 512.357 23.4954C514.178 24.0301 515.875 24.7875 517.439 25.7587V32.6554C516.418 30.3164 514.88 28.4986 512.819 27.2022C510.766 25.9102 508.682 25.2597 506.563 25.2597C504.132 25.2597 502.173 26.0527 500.68 27.6299C499.196 29.1981 498.459 31.0693 498.459 33.2434C498.459 34.8117 498.903 36.1616 499.792 37.2888C500.689 38.4204 501.787 39.3693 503.079 40.1401C504.368 40.9019 506.19 41.8331 508.536 42.938C510.904 44.0919 512.854 45.1611 514.383 46.1457C515.911 47.1214 517.182 48.4 518.204 49.9772C519.221 51.5454 519.732 53.4612 519.732 55.7155C519.732 58.2728 519.128 60.487 517.919 62.3627C516.711 64.2428 515.098 65.6773 513.085 66.6753C511.068 67.6733 508.873 68.1722 506.492 68.1722Z" fill="#174F40"/>
<path d="M134.849 89.0332L133.499 92.2587H134.987L136.004 89.8618H141.998L143.011 92.2587H144.522L143.149 89.0332L142.913 88.4718L139.457 80.3544H138.541L135.089 88.4718L134.849 89.0332ZM138.999 82.8182L141.403 88.4718H136.595L138.999 82.8182Z" fill="#174F40"/>
<path d="M151.748 80.3545H147.362V92.2588H151.748C155.013 92.2588 157.675 89.5901 157.675 86.3155C157.675 83.0365 155.013 80.3545 151.748 80.3545ZM151.748 90.8643H148.731V81.7489H151.748C154.253 81.7489 156.284 83.8028 156.284 86.3155C156.284 88.8283 154.253 90.8643 151.748 90.8643Z" fill="#174F40"/>
<path d="M166.033 89.795L162.021 80.3545H160.533L165.576 92.2588H166.491L171.556 80.3545H170.045L166.033 89.795Z" fill="#174F40"/>
<path d="M186.229 86.3155C186.229 83.0365 183.573 80.3545 180.302 80.3545C177.037 80.3545 174.38 83.0365 174.38 86.3155C174.38 89.5901 177.037 92.2588 180.302 92.2588C183.573 92.2588 186.229 89.5901 186.229 86.3155ZM175.748 86.3155C175.748 83.8028 177.797 81.7489 180.302 81.7489C182.808 81.7489 184.843 83.785 184.843 86.3155C184.843 88.8283 182.808 90.8643 180.302 90.8643C177.797 90.8643 175.748 88.8283 175.748 86.3155Z" fill="#174F40"/>
<path d="M194.962 81.7489C196.166 81.7489 197.317 82.2212 198.166 83.0899L199.147 82.1053C196.842 79.7931 193.083 79.7931 190.763 82.1053C189.648 83.2236 189.04 84.7205 189.04 86.3155C189.04 87.8927 189.648 89.3896 190.763 90.5079C191.883 91.6306 193.372 92.2588 194.962 92.2588C196.539 92.2588 198.028 91.6306 199.147 90.5079L198.166 89.5233C197.317 90.392 196.166 90.8643 194.962 90.8643C193.745 90.8643 192.594 90.392 191.745 89.5233C190.883 88.6768 190.408 87.5184 190.408 86.3155C190.408 85.0903 190.883 83.9364 191.745 83.0899C192.594 82.2212 193.745 81.7489 194.962 81.7489Z" fill="#174F40"/>
<path d="M203.323 89.0332L201.973 92.2588H203.461L204.479 89.8619H210.472L211.485 92.2588H212.996L211.623 89.0332L211.387 88.4718L207.931 80.3545H207.016L203.563 88.4718L203.323 89.0332ZM207.473 82.8182L209.877 88.4718H205.069L207.473 82.8182Z" fill="#174F40"/>
<path d="M221.76 81.7489C222.964 81.7489 224.114 82.2212 224.963 83.0899L225.945 82.1053C223.639 79.7931 219.88 79.7931 217.561 82.1053C216.446 83.2236 215.837 84.7205 215.837 86.3155C215.837 87.8927 216.446 89.3896 217.561 90.5079C218.68 91.6306 220.169 92.2588 221.76 92.2588C223.337 92.2588 224.825 91.6306 225.945 90.5079L224.963 89.5233C224.114 90.392 222.964 90.8643 221.76 90.8643C220.542 90.8643 219.391 90.392 218.543 89.5233C217.681 88.6768 217.205 87.5184 217.205 86.3155C217.205 85.0903 217.681 83.9364 218.543 83.0899C219.391 82.2212 220.542 81.7489 221.76 81.7489Z" fill="#174F40"/>
<path d="M230.138 92.2588V80.3545H228.77V92.2588H230.138Z" fill="#174F40"/>
<path d="M234.336 89.0332L232.985 92.2588H234.473L235.491 89.8619H241.484L242.497 92.2588H244.008L242.635 89.0332L242.4 88.4718L238.943 80.3545H238.028L234.575 88.4718L234.336 89.0332ZM238.485 82.8182L240.889 88.4718H236.082L238.485 82.8182Z" fill="#174F40"/>
<path d="M263.12 81.7489V80.3544H252.808V92.2587H263.12V90.8643H254.176V86.9927H259.952V85.6205H254.176V81.7489H263.12Z" fill="#174F40"/>
<path d="M277.859 81.7489C279.063 81.7489 280.214 82.2212 281.063 83.0899L282.044 82.1053C279.739 79.7931 275.98 79.7931 273.66 82.1053C272.545 83.2236 271.937 84.7205 271.937 86.3155C271.937 87.8927 272.545 89.3896 273.66 90.5079C274.78 91.6306 276.268 92.2588 277.859 92.2588C279.436 92.2588 280.925 91.6306 282.044 90.5079L281.063 89.5233C280.214 90.392 279.063 90.8643 277.859 90.8643C276.642 90.8643 275.491 90.392 274.642 89.5233C273.78 88.6768 273.305 87.5184 273.305 86.3155C273.305 85.0903 273.78 83.9364 274.642 83.0899C275.491 82.2212 276.642 81.7489 277.859 81.7489Z" fill="#174F40"/>
<path d="M296.719 86.3155C296.719 83.0365 294.062 80.3545 290.792 80.3545C287.526 80.3545 284.869 83.0365 284.869 86.3155C284.869 89.5901 287.526 92.2588 290.792 92.2588C294.062 92.2588 296.719 89.5901 296.719 86.3155ZM286.238 86.3155C286.238 83.8028 288.286 81.7489 290.792 81.7489C293.298 81.7489 295.333 83.785 295.333 86.3155C295.333 88.8283 293.298 90.8643 290.792 90.8643C288.286 90.8643 286.238 88.8283 286.238 86.3155Z" fill="#174F40"/>
<path d="M308.45 89.6792L300.524 80.3545H299.529V92.2588H300.897V82.934L308.824 92.2588H309.841V80.3545H308.45V89.6792Z" fill="#174F40"/>
<path d="M319.705 90.8643H316C314.934 90.8643 314.067 90 314.067 88.9307H312.699C312.699 90.7618 314.169 92.2588 316 92.2588H319.705C321.518 92.2588 323.011 90.7618 323.011 88.9307C323.011 87.0952 321.518 85.6205 319.705 85.6205H316C314.934 85.6205 314.067 84.7517 314.067 83.6825C314.067 82.6133 314.934 81.7489 316 81.7489H319.705C320.758 81.7489 321.62 82.6133 321.62 83.6825H323.011C323.011 81.8514 321.518 80.3545 319.705 80.3545H316C314.169 80.3545 312.699 81.8514 312.699 83.6825C312.699 85.518 314.169 86.9927 316 86.9927H319.705C320.758 86.9927 321.62 87.8615 321.62 88.9307C321.62 90 320.758 90.8643 319.705 90.8643Z" fill="#174F40"/>
<path d="M334.79 87.0774C334.79 89.1669 333.097 90.8643 331.014 90.8643C328.93 90.8643 327.237 89.1669 327.237 87.0774V80.3545H325.869V87.0774C325.869 89.9332 328.17 92.2588 331.014 92.2588C333.857 92.2588 336.181 89.9332 336.181 87.0774V80.3545H334.79V87.0774Z" fill="#174F40"/>
<path d="M340.407 80.3545H339.039V92.2588H349.351V90.8643H340.407V80.3545Z" fill="#174F40"/>
<path d="M352.209 80.3545V81.7489H356.661V92.2588H358.047V81.7489H362.521V80.3545H352.209Z" fill="#174F40"/>
<path d="M377.229 86.3155C377.229 83.0365 374.572 80.3545 371.301 80.3545C368.036 80.3545 365.379 83.0365 365.379 86.3155C365.379 89.5901 368.036 92.2588 371.301 92.2588C374.572 92.2588 377.229 89.5901 377.229 86.3155ZM366.747 86.3155C366.747 83.8028 368.796 81.7489 371.301 81.7489C373.807 81.7489 375.842 83.785 375.842 86.3155C375.842 88.8283 373.807 90.8643 371.301 90.8643C368.796 90.8643 366.747 88.8283 366.747 86.3155Z" fill="#174F40"/>
<path d="M390.351 83.6825C390.351 81.8514 388.859 80.3545 387.046 80.3545H380.039V92.2588H381.408V86.9927H384.864L389.352 92.2588H391.16L386.69 86.9927H387.046C388.859 86.9927 390.351 85.518 390.351 83.6825ZM381.408 85.6205V81.7489H387.046C388.099 81.7489 388.961 82.6133 388.961 83.6825C388.961 84.7517 388.099 85.6205 387.046 85.6205H381.408Z" fill="#174F40"/>
<path d="M395.356 92.2588V80.3545H393.987V92.2588H395.356Z" fill="#174F40"/>
<path d="M399.553 89.0332L398.203 92.2588H399.691L400.709 89.8619H406.702L407.715 92.2588H409.226L407.853 89.0332L407.617 88.4718L404.161 80.3545H403.245L399.793 88.4718L399.553 89.0332ZM403.703 82.8182L406.107 88.4718H401.299L403.703 82.8182Z" fill="#174F40"/>
<path d="M422.153 92.2588C425.001 92.2588 427.32 89.9331 427.32 87.0774V80.3544H425.93V87.0774C425.93 89.1668 424.237 90.8643 422.153 90.8643C421.14 90.8643 420.189 90.4767 419.478 89.7638L418.99 89.2693L418.025 90.2361L418.496 90.7306C419.478 91.7152 420.767 92.2588 422.153 92.2588Z" fill="#174F40"/>
<path d="M439.051 87.0774C439.051 89.1668 437.358 90.8643 435.274 90.8643C433.19 90.8643 431.497 89.1668 431.497 87.0774V80.3544H430.129V87.0774C430.129 89.9331 432.43 92.2588 435.274 92.2588C438.118 92.2588 440.441 89.9331 440.441 87.0774V80.3544H439.051V87.0774Z" fill="#174F40"/>
<path d="M453.612 83.6825C453.612 81.8514 452.119 80.3544 450.306 80.3544H443.299V92.2588H444.668V86.9927H448.124L452.612 92.2588H454.42L449.951 86.9927H450.306C452.119 86.9927 453.612 85.518 453.612 83.6825ZM444.668 85.6205V81.7489H450.306C451.359 81.7489 452.221 82.6132 452.221 83.6825C452.221 84.7517 451.359 85.6205 450.306 85.6205H444.668Z" fill="#174F40"/>
<path d="M459.429 76.1443L458.159 75.5829L456.906 78.3852L458.159 78.9644L459.429 76.1443ZM458.856 92.2588V80.3544H457.483V92.2588H458.856Z" fill="#174F40"/>
<path d="M466.338 80.3544H461.953V92.2588H466.338C469.604 92.2588 472.265 89.5901 472.265 86.3155C472.265 83.0365 469.604 80.3544 466.338 80.3544ZM466.338 90.8643H463.322V81.7489H466.338C468.844 81.7489 470.875 83.8028 470.875 86.3155C470.875 88.8282 468.844 90.8643 466.338 90.8643Z" fill="#174F40"/>
<path d="M476.492 92.2588V80.3544H475.123V92.2588H476.492Z" fill="#174F40"/>
<path d="M485.261 81.7489C486.466 81.7489 487.616 82.2212 488.465 83.0899L489.447 82.1053C487.141 79.7931 483.382 79.7931 481.063 82.1053C479.948 83.2236 479.339 84.7205 479.339 86.3155C479.339 87.8927 479.948 89.3896 481.063 90.5079C482.182 91.6306 483.671 92.2588 485.261 92.2588C486.839 92.2588 488.327 91.6306 489.447 90.5079L488.465 89.5233C487.616 90.392 486.466 90.8643 485.261 90.8643C484.044 90.8643 482.893 90.392 482.045 89.5233C481.183 88.6768 480.707 87.5184 480.707 86.3155C480.707 85.0903 481.183 83.9364 482.045 83.0899C482.893 82.2212 484.044 81.7489 485.261 81.7489Z" fill="#174F40"/>
<path d="M493.623 89.0332L492.272 92.2588H493.76L494.778 89.8619H500.772L501.785 92.2588H503.295L501.922 89.0332L501.687 88.4718L498.23 80.3544H497.315L493.863 88.4718L493.623 89.0332ZM497.772 82.8182L500.176 88.4718H495.369L497.772 82.8182Z" fill="#174F40"/>
<defs>
<clipPath id="clip0_159_2932">
<rect width="103.531" height="114" fill="white"/>
</clipPath>
</defs>
</svg>
