<svg width="649" height="877" viewBox="0 0 649 877" fill="none" xmlns="http://www.w3.org/2000/svg">
<g clip-path="url(#clip0_147_7055)">
<path d="M567.192 -18.67C568.668 -15.0378 553.926 7.66781 553.926 7.66781C549.483 37.7871 534.238 49.8282 534.238 49.8282V58.7015C533.264 89.8823 518.946 118.957 518.946 118.957L518.601 143.304L518.444 153.239C516.732 155.561 514.613 157.319 512.054 158.513C502.728 199.032 481.078 222.401 481.078 222.401C469.318 240.844 440.901 267.978 418.011 288.262C410.977 294.531 404.43 300.187 399.092 304.748C390.52 312.079 384.899 316.64 384.899 316.64C386.595 322.345 393.362 325.214 393.362 325.214V325.347C394.461 328.283 412.139 375.253 414.321 390.031C414.62 396.234 414.62 402.453 414.321 408.656C413.693 411.874 399.72 417.645 399.72 417.645C377.269 451.049 369.309 417.015 369.309 417.015C354.708 424.064 340.123 359.215 335.256 361.139C330.389 363.062 320.043 378.47 320.043 378.47C319.43 397.759 290.244 458.114 290.244 458.114C293.29 469.044 288.423 469.044 288.423 469.044C291.437 482.511 286.586 480.588 286.586 480.588C295.614 502.995 303.322 525.916 309.712 549.318C316.4 555.09 309.712 559.601 309.712 559.601C320.043 568.574 312.208 571.161 312.208 571.161L321.927 596.189C351.113 643.607 376.076 707.942 376.076 707.942C377.897 711.79 372.434 727.861 372.434 727.861C387.019 731.709 365.745 738.144 365.745 738.144C387.616 759.954 416.802 846.663 416.802 846.663C430.21 851.158 457.543 874.295 457.543 874.295C539.073 1052.89 521.442 1159.48 521.442 1159.48C526.937 1172.98 514.754 1178.77 514.754 1178.77C517.25 1214.73 509.919 1225.48 509.919 1225.48L54.9169 1233.09L59.1716 1025.89C54.4145 1014.38 40.7869 1005.06 40.7869 1005.06C40.7869 1005.06 38.0708 896.453 39.4524 885.656C40.8183 874.842 44.1781 876.219 44.1781 876.219L42.6395 768.38C42.6395 760.933 38.1022 758.793 38.1022 758.793C25.4951 767.302 5.66598 747.366 5.66598 747.366C21.837 716.119 16.7345 702.933 16.7345 702.933C13.516 710.264 -31.7314 758.03 -31.7314 758.03C-30.6795 764.15 -42.6272 772.758 -42.6272 772.758L-72.3159 789.277L-88.7852 798.416L-90.1668 799.179C-90.1668 799.179 -102.79 800.837 -104.626 797.238C-106.479 793.623 -103.056 781.947 -103.056 781.947C-105.506 782.046 -107.437 781.018 -108.85 778.895C-110.938 775.545 -110.169 759.025 -110.169 759.025C-110.169 759.025 -115.161 760.22 -115.664 758.262C-116.009 756.073 -116.119 753.867 -115.962 751.661L-81.2335 731.759L-59.8501 719.618L-53.1933 715.82L-44.6525 710.927C-38.6237 705.653 -16.2826 643.922 -16.2826 643.922C-15.7959 604.996 17.5195 564.892 17.5195 564.892C21.7114 562.255 38.3534 534.01 38.3534 534.01L18.5086 516.727C-2.43522 521.106 -1.57172 500.606 -1.57172 500.606L-24.0227 475.761C-25.4514 438.294 11.2238 432.058 11.2238 432.058C15.4942 406.318 33.6748 428.293 33.6748 428.293L48.1345 427.779C45.9836 417.795 65.8598 427.547 65.8598 427.547C66.0953 425.043 69.408 411.061 69.408 411.061C66.3465 410.563 64.1485 404.078 64.1485 404.078C67.0373 397.627 79.9113 358.9 79.9113 358.9C81.4813 355.035 83.5694 351.519 86.1756 348.351C88.7818 345.183 91.7962 342.53 95.2031 340.357C98.61 338.201 102.252 336.642 106.13 335.68C110.008 334.734 113.917 334.436 117.874 334.784C128.487 322.196 156.48 311.681 156.48 311.681C156.48 310.055 156.26 308.463 155.821 306.904C145.223 302.509 160.013 286.205 160.013 286.205C161.944 261.393 156.15 259.353 156.15 259.353C148.662 258.673 146.165 244.741 146.165 244.741C145.506 238.654 143.355 233.214 139.728 228.421C119.46 232.85 121.406 212.466 121.406 212.466C115.613 213.146 116.241 197.871 116.241 197.871C101.42 193.525 114.42 169.642 114.938 168.68L94.3553 187.671C87.3374 199.629 85.7517 178.582 85.7517 178.582C89.2842 171.433 106.68 159.21 106.68 159.21C107.386 156.589 107.559 153.902 107.229 151.199C106.884 148.479 106.052 145.941 104.733 143.586C73.8511 136.106 89.6139 119.123 89.6139 119.123C112.473 132.706 121.155 131.678 121.155 131.678C130.811 129.057 131.125 99.7507 131.125 99.7507C127.262 59.3317 170.045 66.1318 170.045 66.1318C209.609 32.8281 214.947 67.4752 214.947 67.4752C258.059 63.7435 254.197 100.779 254.197 100.779C280.589 96.6989 277.056 120.151 277.056 120.151C282.834 121.511 285.079 136.803 285.079 136.803C286.131 146.107 285.927 155.395 284.435 164.65C284.435 168.05 278.642 170.753 278.642 170.753C281.546 174.833 279.615 183.325 279.615 183.325C292.097 193.857 279.615 203.709 279.615 203.709C284.137 219.332 259.362 228.852 259.362 228.852C264.826 266.916 239.078 265.556 239.078 265.556C248.09 272.688 253.569 284.563 255.17 284.911C256.772 285.26 259.692 285.591 259.692 285.591C262.879 276.768 264.826 284.231 264.826 284.231C268.374 283.22 269.646 288.312 269.646 288.312L274.811 283.22C281.766 276.867 289.585 272.107 298.283 268.94C297.309 262.156 305.049 264.528 305.049 264.528C302.145 258.408 310.513 259.088 310.513 259.088C308.017 254.013 318.222 254.659 318.222 254.659L320.153 251.608C310.827 225.452 345.932 243.083 345.932 243.083C348.177 238.986 364.144 227.841 377.944 218.735C384.271 214.522 390.159 210.824 394.037 208.187L398.715 205.235C399.642 204.704 400.537 204.107 401.384 203.443C413.364 194.305 422.972 172.545 422.972 172.545C428.263 166.192 436.647 144.648 436.647 144.648C437.714 142.724 438.97 140.767 440.163 138.859L443.005 134.531L444.277 132.607L444.528 132.242L444.669 132.01L444.873 131.744L445.203 131.263C446.224 129.737 446.867 128.808 446.867 128.808C449.16 126.138 451.138 123.219 452.833 120.101C465.911 96.6989 489.76 40.4574 489.76 40.4574C491.377 37.3891 490.152 27.4046 490.152 27.4046C485.474 23.8553 482.161 19.2113 480.183 13.5059C479.037 -2.33326 479.304 -18.1393 480.999 -33.9287C484.72 -40.0156 492.696 -37.2126 492.696 -37.2126C492.994 -37.6936 493.292 -38.1082 493.606 -38.5395C501.079 -48.5405 509.448 -37.9258 509.448 -37.9258C511.018 -39.1365 516.23 -38.4068 516.23 -38.4068C516.387 -40.8614 516.827 -43.2498 517.58 -45.5717C519.339 -48.8059 524.535 -52.1562 531.428 -49.5523C538.304 -46.9317 533.139 -36.798 532.762 -36.0019C538.398 -44.4439 544.82 -44.6264 544.82 -44.6264C563.707 -30.7609 544.82 -14.0261 544.82 -14.0261C550.33 -13.7441 555.841 -22.4847 555.841 -22.4847C557.223 -24.8066 558.337 -37.0302 558.337 -37.0302C561.65 -50.7132 568.825 -41.6907 568.825 -41.6907C569.202 -33.9453 568.668 -26.2662 567.192 -18.67Z" stroke="white"/>
<path d="M518.522 152.923C519.967 154.913 521.678 156.605 523.641 158.015C525.619 159.408 527.738 160.453 530.015 161.133C532.307 161.83 534.631 162.112 537.001 161.995C539.372 161.896 541.68 161.398 543.894 160.503L579.266 193.143C579.266 193.143 603.695 196.709 603.02 181.799C601.073 181.334 599.173 181.517 597.336 182.346C595.5 183.192 594.071 184.519 593.035 186.326C593.035 186.326 585.404 186.691 575.356 177.553L548.886 155.212C548.886 155.212 532.244 156.008 530.878 153.238C530.878 153.238 525.509 142.69 518.57 143.304" stroke="white"/>
<path d="M434.903 343.79C433.019 321.217 390.535 196.494 390.535 196.494C390.535 196.494 400.662 321.947 399.421 336.393M392.137 132.059C392.137 132.059 397.694 146.704 389.986 144.963C382.277 143.221 390.833 132.209 390.833 132.209L392.137 132.059ZM595.766 191.22C595.766 191.22 593.269 201.287 596.017 202.481C598.749 203.659 605.782 199.164 600.13 188.019L595.766 191.22ZM561.178 398.771C563.675 376.878 600.35 245.703 600.35 245.703L599.235 201.901L561.178 398.771ZM643.886 394.094C637.481 362.631 601.826 249.949 601.826 249.949C601.826 249.949 606.033 363.925 605.296 385.271L643.886 394.094ZM360.799 345.747C362.071 306.755 389.216 193.011 389.216 193.011L389.986 144.963L360.799 345.747Z" stroke="white" stroke-width="0.827481" stroke-miterlimit="10"/>
<path d="M554.489 401.408C554.489 401.408 567.991 451.265 603.002 450.817C637.998 450.369 649.349 420.548 650.196 397.378C646.523 395.239 642.723 393.364 638.798 391.772C634.873 390.18 630.87 388.87 626.788 387.842C622.706 386.83 618.561 386.1 614.385 385.669C610.209 385.254 606.017 385.121 601.809 385.304C597.617 385.47 593.441 385.951 589.312 386.73C585.183 387.51 581.116 388.571 577.113 389.931C573.109 391.291 569.216 392.933 565.432 394.857C561.648 396.781 558.006 398.97 554.489 401.408Z" stroke="white"/>
<path d="M452.91 119.886C452.91 119.886 411.949 128.129 404.963 128.859C401.006 129.356 397.128 128.975 393.329 127.731C393.329 127.731 390.487 120.732 384.427 121.047C384.427 121.047 378.32 129.108 399.389 137.633L445.374 131.23L443.176 134.581C442.281 135.908 441.324 137.384 440.335 138.91" stroke="white"/>
<path d="M414.414 390.08L393.455 325.413C394.554 328.233 412.247 375.303 414.414 390.08Z" stroke="white"/>
<path d="M348.804 352.697C348.804 352.697 362.29 402.553 397.27 402.105C432.249 401.657 443.647 371.82 444.495 348.667C440.821 346.527 437.022 344.653 433.097 343.061C429.188 341.468 425.184 340.158 421.086 339.13C417.004 338.118 412.875 337.388 408.683 336.957C404.507 336.542 400.315 336.41 396.123 336.592C391.916 336.758 387.755 337.239 383.611 338.019C379.481 338.798 375.415 339.86 371.412 341.22C367.408 342.58 363.53 344.222 359.731 346.146C355.947 348.069 352.305 350.259 348.804 352.697Z" stroke="white"/>
<path d="M424.667 390.014C424.667 390.014 443.005 367.905 440.854 358.385M400.52 415.672C353.122 353.625 325.27 257.23 325.27 257.23C337.516 279.886 400.52 415.672 400.52 415.672ZM252.579 127.001C186.467 101.21 130.323 145.228 130.323 145.228C174.959 123.999 252.579 127.001 252.579 127.001ZM87.6666 376.729C90.5868 374.092 131.281 378.62 173.169 365.136C215.025 353.774 257.996 324.435 265.469 303.719C265.469 303.139 238.434 327.802 203.831 344.984C169.322 363.162 127.356 373.826 99.9911 367.507L87.6666 376.729ZM53.7389 667.606L106.507 681.438C143.92 660.375 243.049 606.455 253.254 589.687C263.459 572.902 255.138 488.034 255.138 488.034C255.138 488.034 247.288 511.752 235.953 555.952C224.633 600.169 116.602 657.737 116.602 657.737L78.2309 659.91L45.8104 644.933L53.7389 667.606ZM0.892656 471.863C2.90226 464.466 11.6943 463.239 13.3742 460.104C15.0384 456.97 56.5649 453.072 56.5649 453.072C56.5649 453.072 30.8169 451.53 13.3742 452.309C-4.06855 453.105 -8.22904 473.389 -8.22904 473.389L34.946 508.617L0.892656 471.863ZM179.653 688.852C179.653 688.852 193.547 703.547 219.39 701.208C245.247 698.853 279.002 651.153 282.959 632.71C286.931 614.267 282.959 569.27 282.959 569.27L276.946 613.305C259.063 653.176 199.466 686.762 199.466 686.762L179.653 688.852ZM79.3299 872.951C79.3299 872.951 122.725 881.758 132.349 874.56C141.989 867.362 195.997 831.686 195.997 831.686C195.997 831.686 119.82 858.041 117.512 856.664C115.189 855.304 63.8497 750.451 63.8497 750.451L79.3299 872.951ZM-147.692 367.093C-147.692 367.093 -102.115 712.005 -98.0487 719.751C-98.0487 719.751 -141.585 379.814 -147.692 367.093ZM-84.7979 803.01C-84.7979 803.01 -86.7447 819.015 -89.555 819.844L-83.9815 824.903L-86.4621 818.999L-84.7979 803.01ZM630.541 436.486C630.541 436.486 648.879 414.395 646.712 404.858L630.541 436.486Z" stroke="white"/>
</g>
<defs>
<clipPath id="clip0_147_7055">
<rect width="798.816" height="926.667" fill="white" transform="translate(-150 -50)"/>
</clipPath>
</defs>
</svg>
