<svg width="640" height="512" viewBox="0 0 640 512" fill="none" xmlns="http://www.w3.org/2000/svg">
<path d="M496 224C416.4 224 352 288.4 352 368C352 447.6 416.38 512 496 512C575.62 512 640 447.62 640 368C640 288.38 575.6 224 496 224ZM544 384H489.75C484.4 384 480 379.6 480 374.3V304C480 295.2 487.2 288 496 288C504.8 288 512 295.2 512 304V352H544C552.838 352 560 359.162 560 368C560 376.8 552.8 384 544 384ZM320.1 352H208C199.2 352 192 344.8 192 336V288H0V432C0 457.6 22.41 480 48 480H360.2C335.1 449.6 320 410.5 320 368C320 362.6 320.5 357.3 320.1 352ZM496 192C501.402 192 506.72 192.33 512 192.807V144C512 118.4 489.6 96 464 96H384V48C384 22.41 361.6 0 336 0H176C150.4 0 128 22.41 128 48V96H48C22.41 96 0 118.4 0 144V256H360.2C392.5 216.9 441.3 192 496 192ZM336 96H176V48H336V96Z" fill="#B8A25D"/>
</svg>
