<svg width="640" height="512" viewBox="0 0 640 512" fill="none" xmlns="http://www.w3.org/2000/svg">
<g clip-path="url(#clip0_354_3618)">
<path d="M554.9 154.5C537.28 119.25 486.78 119.12 469.03 154.5C382.03 328.8 384.93 320.4 384.93 336C384.93 380.13 442.18 416 512.93 416C583.68 416 640.03 380.12 640.03 336C639.1 319.9 641.4 327.3 554.9 154.5ZM439.1 320L511.06 176L583.23 320H439.1ZM256 336C256 319.88 257.375 327.25 170.88 154.5C153.26 119.25 102.76 119.12 85.0098 154.5C-1.99023 328.8 0.909766 320.4 0.909766 336C0.909766 380.13 58.1598 416 128.01 416C197.86 416 256 380.1 256 336ZM127.9 176L200.1 320H55.9598L127.9 176ZM495.1 448H352V153.3C375.5 143 393.1 121.8 398.4 96H512C529.67 96 543.1 81.67 543.1 64C543.1 46.33 528.77 32 512 32H383.6C368.98 12.62 346.1 0 319.98 0C293.86 0 270.1 12.62 256.4 32H128C110.3 32 95.9998 46.33 95.9998 64C95.9998 81.67 110.3 96 127.1 96H240.7C245.95 121.75 263.57 143 287.07 153.25V448H144C117.49 448 95.9898 469.49 95.9898 496C95.9898 504.836 103.155 512 111.99 512H527.99C536.826 512 543.99 504.836 543.99 496C544 469.5 522.5 448 495.1 448Z" fill="#B8A25D"/>
</g>
<defs>
<clipPath id="clip0_354_3618">
<rect width="640" height="512" fill="white"/>
</clipPath>
</defs>
</svg>
