<svg width="448" height="512" viewBox="0 0 448 512" fill="none" xmlns="http://www.w3.org/2000/svg">
<path d="M384 32H64C28.65 32 0 60.65 0 96V416C0 451.35 28.65 480 64 480H384C419.35 480 448 451.35 448 416V96C448 60.65 419.3 32 384 32ZM351.6 321.5L339.98 371.89C338.347 379.015 332.08 384 324.74 384C198.64 384 96.04 281.4 96.04 155.2C96.04 147.872 101.024 141.61 108.15 139.98L158.53 128.35C165.874 126.647 173.41 130.459 176.46 137.412L199.73 191.692C202.449 198.083 200.613 205.522 195.238 209.912L168.3 232C185.29 266.61 213.44 294.75 248.07 311.75L270.09 284.84C274.434 279.449 281.94 277.59 288.33 280.356L342.57 303.606C349.5 306.6 353.3 314.2 351.6 321.5Z" fill="#174F40"/>
</svg>
